<?xml version="1.0" encoding="utf-8"?>
<!-- Generator: Adobe Illustrator 21.1.0, SVG Export Plug-In . SVG Version: 6.00 Build 0)  -->
<svg version="1.1" id="Layer_1" xmlns="http://www.w3.org/2000/svg" xmlns:xlink="http://www.w3.org/1999/xlink" x="0px" y="0px"
	 viewBox="0 0 442.2 67.9" style="enable-background:new 0 0 442.2 67.9;" xml:space="preserve">
<style type="text/css">
	.st0{fill:#02C9CE;}
	.st1{enable-background:new    ;}
	.st2{fill:#FFFFFF;}
</style>
<g>
	<rect class="st0" width="442.2" height="67.9"/>
	<g class="st1">
		<path class="st2" d="M78.7,44.7c-0.9,0-1.7-0.3-2.3-0.9s-0.9-1.4-0.9-2.3v-16c0-0.9,0.3-1.7,0.9-2.3s1.4-0.9,2.3-0.9h16v4.5H80.3
			v13.4h9.6v-5.8h-6.4V30h11.2v14.7H78.7z"/>
		<path class="st2" d="M100.8,44.7c-0.9,0-1.7-0.3-2.3-0.9s-0.9-1.4-0.9-2.3v-16c0-0.9,0.3-1.7,0.9-2.3s1.4-0.9,2.3-0.9h14.4v4.5
			h-12.8V30h12.8v4.5h-12.8v5.8h12.8v4.5H100.8z"/>
		<path class="st2" d="M131.6,44.7L122,31.2v13.4h-4.8V22.3h4.8l9.6,13.4V22.3h4.8v22.4H131.6z"/>
		<path class="st2" d="M153.8,44.7V34.4h-9.6v10.2h-4.8V22.3h16c0.9,0,1.7,0.3,2.3,0.9c0.6,0.6,0.9,1.4,0.9,2.3V29
			c0,0.9-0.3,1.7-0.9,2.3c-0.6,0.6-1.4,0.9-2.3,0.9c0.9,0,1.7,0.3,2.3,0.9c0.6,0.6,0.9,1.4,0.9,2.3v9.3H153.8z M153.8,26.8h-9.6V30
			h9.6V26.8z"/>
		<path class="st2" d="M164.7,44.7c-0.9,0-1.7-0.3-2.3-0.9s-0.9-1.4-0.9-2.3v-16c0-0.9,0.3-1.7,0.9-2.3s1.4-0.9,2.3-0.9h14.4v4.5
			h-12.8V30h12.8v4.5h-12.8v5.8h12.8v4.5H164.7z"/>
		<path class="st2" d="M200.3,41.5c0,0.9-0.3,1.7-0.9,2.3c-0.6,0.6-1.4,0.9-2.3,0.9h-16v-4.5h14.4v-5.8h-11.2
			c-0.9,0-1.7-0.3-2.3-0.9s-0.9-1.4-0.9-2.3v-5.8c0-0.9,0.3-1.7,0.9-2.3s1.4-0.9,2.3-0.9h16v4.5h-14.4V30h11.2
			c0.9,0,1.7,0.3,2.3,0.9c0.6,0.6,0.9,1.4,0.9,2.3V41.5z"/>
	</g>
	<path class="st2" d="M18.5,43.2c0-0.7,0-0.7,0-1.4c0-7.5,0-15.1,0-22.6c0-0.7,0-1.4,0.7-1.4c7.5-1.4,14.4-2.7,21.9-4.1
		c0.7,0,1.4,0,2.7-0.7c0,1.4,0,2.7,0,4.1c0,4.8,0,10.3,0,15.1c0,3.4,0,6.9,0,10.3c0,2.1-0.7,3.4-2.1,4.1c-2.1,2.1-4.8,2.1-7.5,1.4
		c-2.1-0.7-3.4-2.1-3.4-4.1c-0.7-2.1,0.7-4.1,2.1-4.8c2.1-1.4,4.8-2.1,6.9-1.4c0,0,0,0,0.7,0c0-5.5,0-10.3,0-15.8
		c-1.4,0-2.1,0.7-3.4,0.7c-4.8,0.7-10.3,2.1-15.1,2.7c-0.7,0-0.7,0.7-0.7,0.7c0,6.2,0,13,0,19.2c0,4.1-2.7,6.9-7.5,6.9
		c-2.1,0-4.1-1.4-5.5-3.4c-0.7-2.1,0-4.8,2.1-6.2c2.1-1.4,4.8-2.1,6.9-1.4C17.8,43.2,17.8,43.2,18.5,43.2z"/>
</g>
</svg>
