<?xml version="1.0" encoding="utf-8"?>
<!-- Generator: Adobe Illustrator 21.1.0, SVG Export Plug-In . SVG Version: 6.00 Build 0)  -->
<svg version="1.1" id="Layer_1" xmlns="http://www.w3.org/2000/svg" xmlns:xlink="http://www.w3.org/1999/xlink" x="0px" y="0px"
	 viewBox="0 0 442.2 67.9" style="enable-background:new 0 0 442.2 67.9;" xml:space="preserve">
<style type="text/css">
	.st0{fill:#02C9CE;}
	.st1{enable-background:new    ;}
	.st2{fill:#FFFFFF;}
</style>
<rect class="st0" width="442.2" height="67.9"/>
<g class="st1">
	<path class="st2" d="M89.9,47.6V37.4h-9.6v10.2h-4.8V25.3h4.8v7.7h9.6v-7.7h4.8v22.4H89.9z"/>
	<path class="st2" d="M116.8,44.4c0,0.9-0.3,1.7-0.9,2.3c-0.6,0.6-1.4,0.9-2.3,0.9h-12.8c-0.9,0-1.7-0.3-2.3-0.9
		c-0.6-0.6-0.9-1.4-0.9-2.3v-16c0-0.9,0.3-1.7,0.9-2.3s1.4-0.9,2.3-0.9h12.8c0.9,0,1.7,0.3,2.3,0.9c0.6,0.6,0.9,1.4,0.9,2.3V44.4z
		 M112,29.7h-9.6v13.4h9.6V29.7z"/>
	<path class="st2" d="M139.2,47.6V36.4l-5.4,11.2H130l-5.4-11.2v11.2h-4.8V25.3h4.8l7.3,15.2l7.4-15.2h4.8v22.4H139.2z"/>
	<path class="st2" d="M150.1,47.6c-0.9,0-1.7-0.3-2.3-0.9c-0.6-0.6-0.9-1.4-0.9-2.3v-16c0-0.9,0.3-1.7,0.9-2.3s1.4-0.9,2.3-0.9h14.4
		v4.5h-12.8v3.2h12.8v4.5h-12.8v5.8h12.8v4.5H150.1z"/>
</g>
<path class="st2" d="M45.3,35.7L27.5,18.6c-0.7-0.7-1.4-0.7-1.4,0l-6.9,6.2v-0.7c0-0.7,0-0.7-0.7-0.7h-4.8c-0.7,0-0.7,0-0.7,0.7V31
	l-5.5,4.8c-0.7,0.7,0,1.4,0.7,1.4H13v13.7c0,0.7,0.7,1.4,1.4,1.4h7.5c0.7,0,0.7-0.7,0.7-0.7v-7.5c0-0.7,0-0.7,0.7-0.7H26h2.7
	c0.7,0,0.7,0,0.7,0.7v7.5c0,0.7,0.7,0.7,0.7,0.7h7.5c0.7,0,1.4-0.7,1.4-1.4V37.2h4.8C45.3,37,46,36.3,45.3,35.7z"/>
</svg>
