<?xml version="1.0" encoding="utf-8"?>
<!-- Generator: Adobe Illustrator 21.1.0, SVG Export Plug-In . SVG Version: 6.00 Build 0)  -->
<svg version="1.1" id="Layer_1" xmlns="http://www.w3.org/2000/svg" xmlns:xlink="http://www.w3.org/1999/xlink" x="0px" y="0px"
	 viewBox="0 0 1366 656.9" style="enable-background:new 0 0 1366 656.9;" xml:space="preserve">
<style type="text/css">
	.st0{fill:#FFFFFF;}
	.st1{fill:#02C9CE;}
	.st2{fill:none;stroke:#02C9CE;stroke-width:2;stroke-miterlimit:10;}
	.st3{fill:none;}
</style>
<polygon points="1268.9,433 157.8,433 115.8,171 334.8,79.7 1070.9,64.5 1316.9,163.6 1316.9,407.6 "/>
<polygon class="st0" points="1359.8,537.5 1275.2,439.9 1282.3,439.9 1282.3,433 1036.3,433 1036.3,87.3 1138.3,87.3 1138.3,0 
	316.9,0 316.9,87.3 377.4,87.3 377.4,412.9 377.4,433 101.1,433 28.1,433 28.1,439.9 222.5,439.9 222.5,537.5 184.6,537.5 
	111.8,537.5 111.8,544.6 222.5,544.6 229.5,544.6 365.4,544.6 372.3,544.6 508.2,544.6 515.2,544.6 651.1,544.6 658,544.6 
	793.9,544.6 800.9,544.6 936.8,544.6 943.9,544.6 1079.6,544.6 1086.8,544.6 1222.5,544.6 1229.6,544.6 1366,544.6 1366,537.5 "/>
<polygon class="st0" points="384.6,87.3 1029.4,87.3 1029.4,412.9 1029.4,433 384.6,433 "/>
<rect x="515.2" y="439.9" class="st0" width="135.9" height="97.5"/>
<rect x="658" y="439.9" class="st0" width="135.9" height="97.5"/>
<rect x="800.9" y="439.9" class="st0" width="135.9" height="97.5"/>
<rect x="943.9" y="439.9" class="st0" width="135.7" height="97.5"/>
<rect x="1086.8" y="439.9" class="st0" width="135.7" height="97.5"/>
<g>
	<polygon class="st1" points="151.1,0 0,0 0,656.9 183,656.9 183,230.3 241.1,154 324.3,117.9 356.5,0 183,0 	"/>
	<polygon class="st1" points="1044.6,0 1092.6,117.9 1220.9,154 1268.9,233.2 1268.9,433 1366,544.6 1366,0 	"/>
</g>
<rect x="381" y="87.3" width="652" height="345.7"/>
<polygon class="st2" points="1017.8,25.2 461.4,25.2 381.5,25.2 371.4,61.4 1032.8,61.4 "/>
<rect x="1086.8" y="491.3" width="135.7" height="97.5"/>
<rect x="943.9" y="491.3" width="135.7" height="97.5"/>
<g>
	<g>
		<g>
			<path class="st0" d="M104,34.6c-16.5-16.5-43.1-16.5-59.6,0s-16.5,43.1,0,59.6c16.5,16.5,43.1,16.5,59.6,0
				C120.3,77.7,120.3,51.1,104,34.6z M54,85C42.6,73.7,42.6,55.4,54,44c11.4-11.4,29.7-11.4,41.1,0c11.4,11.4,11.4,29.7,0,41.1
				C83.7,96.2,65.2,96.2,54,85z"/>
			<path class="st0" d="M92.4,46.4c-9.8-9.8-26.1-9.8-35.9,0c-9.8,9.8-9.8,26.1,0,35.9s26.1,9.8,35.9,0
				C102.2,72.5,102.2,56.5,92.4,46.4z M92.4,78.6l-3.6-3.3L85,79l3.3,3.6c-3.1,3.1-8.3,4.2-8.3,4.2s-4.9,1.6-9.4,0.4l1.3-4.7
				l-5.4-1.3l-1.1,4.9c-4.2-1.3-7.8-5.1-7.8-5.1s-3.8-3.6-5.1-7.8l4.7-1.3l-1.1-5.4l-4.7,1.3c-1.1-4.5,0.4-9.4,0.4-9.4
				s1.1-5.1,4.2-8.3l3.6,3.3l3.8-3.8l-3.3-3.6c3.1-3.1,8.3-4.2,8.3-4.2s4.9-1.6,9.4-0.4l-1.3,4.7l5.1,1.3l1.3-4.7
				c4.2,1.3,7.8,5.1,7.8,5.1s3.8,3.6,5.1,7.8l-4.9,1.1l1.6,5.4l4.7-1.3c1.1,4.5-0.4,9.4-0.4,9.4S95.5,75.2,92.4,78.6z"/>
		</g>
	</g>
</g>
<g>
	<g>
		<g>
			<path class="st0" d="M197.8,34.8c-16.5-16.5-43.1-16.5-59.6,0c-16.5,16.5-16.5,43.1,0,59.6c16.5,16.5,43.1,16.5,59.6,0
				C214.1,77.9,214.1,51.3,197.8,34.8z M147.8,85c-11.4-11.4-11.4-29.7,0-41.1c11.4-11.4,29.7-11.4,41.1,0s11.4,29.7,0,41.1
				C177.4,96.4,158.9,96.4,147.8,85z"/>
			<path class="st0" d="M186.2,46.6c-9.8-9.8-26.1-9.8-35.9,0c-9.8,9.8-9.8,26.1,0,35.9c9.8,9.8,26.1,9.8,35.9,0
				C196,72.5,196,56.5,186.2,46.6z M186.2,78.6l-3.6-3.3l-3.8,3.8l3.3,3.6c-3.1,3.1-8.3,4.2-8.3,4.2s-4.9,1.6-9.4,0.4l1.3-4.7
				l-5.4-1.3l-1.1,4.9c-4.2-1.3-7.8-5.1-7.8-5.1s-3.8-3.6-5.1-7.8l4.7-1.3l-1.1-5.4l-4.7,1.3c-1.1-4.5,0.4-9.4,0.4-9.4
				s1.1-5.1,4.2-8.3l3.6,3.3l3.8-3.8l-3.3-3.6c3.1-3.1,8.3-4.2,8.3-4.2s4.9-1.6,9.4-0.4l-1.3,4.7l5.1,1.3l1.3-4.7
				c4.2,1.3,7.8,5.1,7.8,5.1s3.8,3.6,5.1,7.8l-4.9,1.1l1.6,5.4l4.7-1.3c1.1,4.5-0.4,9.4-0.4,9.4S189.3,75.4,186.2,78.6z"/>
		</g>
	</g>
</g>
<rect x="74.1" y="101.8" class="st0" width="93.7" height="4.9"/>
<g>
	<path class="st0" d="M31.9,118.3v-2.2h5.1l1.1,2.2H31.9z M31.9,121.4v-2.2h6.7l1.1,2.2H31.9z M31.9,124.3v-2.2h8l1.1,2.2H31.9z
		 M31.9,127.4v-2.2h9.4l1.1,2.2H31.9z M37.7,130.6l-0.4-1.1v1.1h-5.1v-2.2h10.7l1.1,2.2H37.7z M31.9,133.5v-2.2h5.1v2.2H31.9z
		 M31.9,136.6v-2.2h5.1v2.2H31.9z M31.9,139.7v-2.2h5.1v2.2H31.9z M31.9,142.6v-2.2h5.1v2.2H31.9z M39.1,133.5l-1.1-2.2h6l1.1,2.2
		H39.1z M50,136.6h-9.6l-1.1-2.2h11.6L50,136.6z M48.7,139.7h-6.9l-1.1-2.2h8.9L48.7,139.7z M47.3,142.6h-4.2l-1.1-2.2h6.2
		L47.3,142.6z M51.3,133.5h-6l1.1-2.2h6L51.3,133.5z M53.3,130.6v-1.1l-0.4,1.1h-6l1.1-2.2h10.7v2.2H53.3z M48.2,127.4l1.1-2.2h9.4
		v2.2H48.2z M49.6,124.3l1.1-2.2h8v2.2H49.6z M50.9,121.4l1.1-2.2h6.7v2.2H50.9z M52.2,118.3l1.1-2.2h5.1v2.2H52.2z M53.3,133.5
		v-2.2h5.1v2.2H53.3z M53.3,136.6v-2.2h5.1v2.2H53.3z M53.3,139.7v-2.2h5.1v2.2H53.3z M53.3,142.6v-2.2h5.1v2.2H53.3z"/>
	<path class="st0" d="M61.4,118.3v-2.2h5.1v2.2H61.4z M61.4,121.4v-2.2h5.1v2.2H61.4z M61.4,124.3v-2.2h5.1v2.2H61.4z M61.4,127.4
		v-2.2h5.1v2.2H61.4z M61.4,130.6v-2.2h5.1v2.2H61.4z M61.4,133.5v-2.2h5.1v2.2H61.4z M61.4,136.6v-2.2h5.1v2.2H61.4z M61.4,139.7
		v-2.2h5.1v2.2H61.4z M61.4,142.6v-2.2h5.1v2.2H61.4z"/>
	<path class="st0" d="M70.5,118.3l-1.6-2.2h6.7l1.6,2.2H70.5z M75.7,142.6H69l1.6-2.2h6.7L75.7,142.6z M72.5,121.4l-1.6-2.2h6.7
		l1.6,2.2H72.5z M77.7,139.7H71l1.6-2.2h6.7L77.7,139.7z M87.7,124.3H74.5l-1.6-2.2h6.7l1.6,2.2l1.6-2.2h6.7L87.7,124.3z
		 M82.6,136.6l-1.6-2.2l-1.6,2.2h-6.7l1.6-2.2h13.2l1.6,2.2H82.6z M85.7,127.4h-9.2l-1.6-2.2h12.3L85.7,127.4z M75,133.5l1.6-2.2
		h9.2l1.6,2.2H75z M77,130.6l0.7-1.1l-0.7-1.1h8.3l-0.7,1.1l0.7,1.1H77z M89.7,121.4H83l1.6-2.2h6.7L89.7,121.4z M84.8,139.7
		l-1.6-2.2H90l1.6,2.2H84.8z M92,118.3h-6.7l1.6-2.2h6.7L92,118.3z M86.8,142.6l-1.6-2.2H92l1.6,2.2H86.8z"/>
	<path class="st0" d="M94.6,118.3v-2.2h21v2.2H94.6z M94.6,121.4v-2.2h21v2.2H94.6z M102.9,124.3v-2.2h5.1v2.2H102.9z M102.9,127.4
		v-2.2h5.1v2.2H102.9z M102.9,130.6v-2.2h5.1v2.2H102.9z M102.9,133.5v-2.2h5.1v2.2H102.9z M102.9,136.6v-2.2h5.1v2.2H102.9z
		 M102.9,139.7v-2.2h5.1v2.2H102.9z M102.9,142.6v-2.2h5.1v2.2H102.9z"/>
	<path class="st0" d="M122.5,142.6h-6l0.9-2.2h6L122.5,142.6z M123.7,139.7h-6l0.9-2.2h6L123.7,139.7z M118.7,136.6l0.9-2.2h20.1
		l0.9,2.2H118.7z M119.9,133.5l0.9-2.2h17.9l0.9,2.2H119.9z M127,130.6h-6l0.9-2.2h6L127,130.6z M128.1,127.4h-6l0.9-2.2h6
		L128.1,127.4z M130.1,124.3l-0.4-1.3l-0.4,1.3h-6l0.9-2.2h11.2l0.9,2.2H130.1z M124.3,121.4l0.9-2.2h8.9l0.9,2.2H124.3z
		 M125.4,118.3l0.9-2.2h6.7l0.9,2.2H125.4z M131.2,127.4l-0.9-2.2h6l0.9,2.2H131.2z M132.4,130.6l-0.9-2.2h6l0.9,2.2H132.4z
		 M135.7,139.7l-0.9-2.2h6l0.9,2.2H135.7z M136.8,142.6l-0.9-2.2h6l0.9,2.2H136.8z"/>
	<path class="st0" d="M144.9,118.3v-2.2h17.4c1.6,0,2.7,0.7,3.1,2.2H144.9z M144.9,121.4v-2.2h21v0.2v0.2c0,0,0,0.2,0,0.4v1.6h-21
		V121.4z M144.9,124.3v-2.2h5.1v2.2H144.9z M165.8,126.8c0,0.2,0,0.2,0,0.4c0,0,0,0,0,0.2v0.2h-21v-2.2h21V126.8z M165.4,128.1
		c-0.7,1.6-1.8,2.2-3.1,2.2h-17.4v-2.2H165.4z M144.9,133.5v-2.2h5.1v2.2H144.9z M144.9,136.6v-2.2h5.1v2.2H144.9z M144.9,139.7
		v-2.2h5.1v2.2H144.9z M144.9,142.6v-2.2h5.1v2.2H144.9z M160.5,124.3v-2.2h5.1v2.2H160.5z"/>
	<path class="st0" d="M167.4,121.4v-1.6c0-0.2,0-0.2,0-0.4c0,0,0,0,0-0.2V119h19.2v2.2h-19.2V121.4z M167.4,124.3v-2.2h5.1v2.2
		H167.4z M167.4,127.4v-2.2h19.2v2.2H167.4z M167.4,130.6v-2.2h19.2v2.2H167.4z M167.4,133.5v-2.2h5.1v2.2H167.4z M167.4,136.6v-2.2
		h5.1v2.2H167.4z M167.4,139.7C167.4,139.5,167.4,139.5,167.4,139.7c0-0.2,0-0.2,0-0.4c0,0,0-0.2,0-0.4v-1.6h19.2v2.2h-19.2V139.7z
		 M167.6,118.3c0.7-1.6,1.6-2.2,3.1-2.2h15.6v2.2H167.6z M170.8,142.6c-1.6,0-2.7-0.7-3.1-2.2h19v2.2H170.8z"/>
	<path class="st0" d="M189.3,118.3v-2.2h17.4c1.6,0,2.7,0.7,3.1,2.2H189.3z M189.3,121.4v-2.2h21v0.2v0.2c0,0,0,0.2,0,0.4v1.6h-21
		V121.4z M189.3,124.3v-2.2h5.1v2.2H189.3z M189.3,127.4v-2.2h5.1v2.2H189.3z M189.3,130.6v-2.2h5.1v2.2H189.3z M189.3,133.5v-2.2
		h5.1v2.2H189.3z M189.3,136.6v-2.2h5.1v2.2H189.3z M210,138.8c0,0.2,0,0.2,0,0.4c0,0,0,0,0,0.2v0.2h-21v-2.2h21V138.8z
		 M209.8,140.4c-0.7,1.6-1.8,2.2-3.1,2.2h-17.4v-2.2H209.8z M204.9,124.3v-2.2h5.1v2.2H204.9z M204.9,127.4v-2.2h5.1v2.2H204.9z
		 M204.9,130.6v-2.2h5.1v2.2H204.9z M204.9,133.5v-2.2h5.1v2.2H204.9z M204.9,136.6v-2.2h5.1v2.2H204.9z"/>
</g>
<rect x="800.9" y="491.3" width="135.7" height="97.5"/>
<rect x="658" y="491.3" width="135.7" height="97.5"/>
<rect x="515.2" y="491.3" width="135.7" height="97.5"/>
<rect x="372.3" y="491.3" width="135.7" height="97.5"/>
<rect x="229.5" y="491.3" width="135.7" height="97.5"/>
<line class="st3" x1="31.9" y1="142.6" x2="31.9" y2="300.9"/>
<rect x="31.9" y="159.1" class="st1" width="144" height="22.1"/>
<rect x="31.9" y="183" class="st1" width="144" height="22.1"/>
<rect x="31.9" y="205.3" class="st1" width="144" height="22.1"/>
<rect x="31.9" y="227.4" class="st1" width="144" height="22.1"/>
<rect x="31.9" y="250.9" class="st1" width="144" height="22.1"/>
<rect x="24.6" y="269.4" class="st1" width="151.3" height="22.1"/>
</svg>
