<?xml version="1.0" encoding="utf-8"?>
<!-- Generator: Adobe Illustrator 21.1.0, SVG Export Plug-In . SVG Version: 6.00 Build 0)  -->
<svg version="1.1" id="Layer_1" xmlns="http://www.w3.org/2000/svg" xmlns:xlink="http://www.w3.org/1999/xlink" x="0px" y="0px"
	 viewBox="0 0 1351.5 650" style="enable-background:new 0 0 1351.5 650;" xml:space="preserve">
<style type="text/css">
	.st0{fill:#FFFFFF;}
	.st1{fill:#02C9CE;}
	.st2{fill:none;stroke:#02C9CE;stroke-width:2;stroke-miterlimit:10;}
	.st3{font-family:'SFAlienEncounters';}
	.st4{font-size:37.635px;}
	.st5{fill:#4192A4;}
	.st6{font-family:'SFAlienEncountersSolid';}
	.st7{font-size:10.2918px;}
	.st8{fill:#E5E5E5;}
	.st9{enable-background:new    ;}
	.st10{fill:#666666;}
	.st11{font-family:'Arista';}
	.st12{font-size:15.2118px;}
	.st13{fill:none;}
	.st14{fill:#02C9CE;stroke:#FFFFFF;stroke-width:2;stroke-miterlimit:10;}
	.st15{fill:#17141F;}
	.st16{fill:none;stroke:#02C9CE;stroke-miterlimit:10;}
	.st17{font-family:'Roboto-Light';}
	.st18{font-size:18.1558px;}
	.st19{fill:#FFFFFF;stroke:#02C9CE;stroke-width:2;stroke-miterlimit:10;}
	.st20{font-size:26.5066px;}
	.st21{font-family:'FuturaPT-Demi';}
	.st22{font-size:32.3646px;}
	.st23{fill:#02C9CE;stroke:#FFFFFF;stroke-miterlimit:10;}
</style>
<rect x="0" y="100.2" class="st0" width="1350.9" height="549.5"/>
<g>
	<polygon class="st0" points="1010.4,22.7 1033.2,78.8 975.1,78.8 937.1,22.7 	"/>
	<g>
		<g>
			<polygon class="st0" points="396.9,78.8 356.1,78.8 371.5,22.1 450.1,22.1 			"/>
		</g>
		<polygon class="st0" points="371.5,22.1 1010,22.1 1021.7,50.8 975.1,78.8 356.1,78.8 384.1,50.8 		"/>
	</g>
</g>
<image style="overflow:visible;enable-background:new    ;" width="444" height="434" xlink:href="1C5CE77.jpg"  transform="matrix(0.4264 0 0 0.4245 3.067902e-03 230.6284)">
</image>
<polygon points="1255,428.3 156,428.3 114.5,169.1 331.1,78.8 1059.2,63.8 1302.5,161.8 1302.5,403.1 "/>
<g>
	<polygon class="st0" points="110.6,538.7 110.6,531.6 182.8,531.6 1351.1,531.6 1351.1,538.7 	"/>
	<rect x="313.4" class="st0" width="812.4" height="86.3"/>
	<polygon class="st0" points="27.8,435.1 27.8,428.3 100,428.3 1268.5,428.3 1268.5,435.1 	"/>
	<polygon class="st0" points="380.3,428.3 373.3,428.3 373.3,408.4 373.3,86.3 380.3,86.3 	"/>
	<polygon class="st0" points="1025.2,428.3 1018.1,428.3 1018.1,408.4 1018.1,86.3 1025.2,86.3 	"/>
	<g>
		<g>
			<polygon class="st0" points="1074.9,538.7 1067.8,538.7 1067.8,532.7 1067.8,435.1 1074.9,435.1 			"/>
			<polygon class="st0" points="933.6,538.7 926.5,538.7 926.5,532.7 926.5,435.1 933.6,435.1 			"/>
			<polygon class="st0" points="792.3,538.7 785.2,538.7 785.2,532.7 785.2,435.1 792.3,435.1 			"/>
			<polygon class="st0" points="651,538.7 643.9,538.7 643.9,532.7 643.9,435.1 651,435.1 			"/>
			<polygon class="st0" points="509.5,538.7 502.6,538.7 502.6,532.7 502.6,435.1 509.5,435.1 			"/>
			<polygon class="st0" points="368.2,538.7 361.4,538.7 361.4,532.7 361.4,435.1 368.2,435.1 			"/>
			<polygon class="st0" points="226.9,538.7 220.1,538.7 220.1,532.7 220.1,435.1 226.9,435.1 			"/>
			<polygon class="st0" points="1216.2,538.7 1209.1,538.7 1209.1,532.7 1209.1,435.1 1216.2,435.1 			"/>
		</g>
	</g>
	<polygon class="st0" points="1216.2,435.1 1219.9,431.8 1261.2,435.1 1346.9,533.8 1216.2,533.8 	"/>
</g>
<polygon class="st0" points="1014.8,42.4 1014.8,42.4 1014.8,42.4 1003.8,15.5 1003.8,15.5 1003.3,14.8 456.3,14.8 379.5,14.8 
	364.4,69.5 404.2,69.5 969.1,69.5 1026.1,69.5 "/>
<g>
	<rect x="0" class="st1" width="181" height="649.7"/>
	<g>
		<polygon class="st1" points="238.4,152.3 320.7,116.6 352.5,0 149.4,0 179.7,189.9 		"/>
	</g>
	<polygon class="st1" points="238.4,152.3 140.1,281.5 149.4,94.9 	"/>
	<polygon class="st1" points="1033.2,0 1080.6,116.6 1207.6,152.3 1255,230.7 1255,428.3 1351.1,538.7 1351.1,0 	"/>
</g>
<rect x="376.8" y="86.3" width="644.9" height="342"/>
<polygon class="st2" points="1006.7,24.9 456.3,24.9 377.2,24.9 367.3,60.7 1021.4,60.7 "/>
<rect x="1074.9" y="435.1" width="134.2" height="96.5"/>
<rect x="933.6" y="435.1" width="134.2" height="96.5"/>
<g>
	<g>
		<g>
			<g>
				<path class="st0" d="M102.8,34.2c-16.3-16.3-42.6-16.3-58.9,0s-16.3,42.6,0,58.9c16.3,16.3,42.6,16.3,58.9,0
					C118.9,76.8,118.9,50.6,102.8,34.2z M53.4,84.1c-11.3-11.3-11.3-29.4,0-40.6s29.4-11.3,40.6,0s11.3,29.4,0,40.6
					C82.7,95.2,64.4,95.2,53.4,84.1z"/>
				<path class="st0" d="M91.4,45.9c-9.7-9.7-25.8-9.7-35.5,0c-9.7,9.7-9.7,25.8,0,35.5s25.8,9.7,35.5,0
					C101.3,71.7,101.3,55.9,91.4,45.9z M91.6,77.7L88,74.4l-3.8,3.8l3.3,3.5c-3.1,3.1-8.2,4.2-8.2,4.2s-4.9,1.5-9.3,0.4l1.3-4.6
					l-5.3-1.3l-1.1,4.9c-4.2-1.3-7.7-5.1-7.7-5.1s-3.8-3.5-5.1-7.7l4.6-1.3l-1.1-5.3l-4.6,1.3c-1.1-4.4,0.4-9.3,0.4-9.3
					s1.1-5.1,4.2-8.2l3.5,3.3l3.8-3.8l-3.3-3.5c3.1-3.1,8.2-4.2,8.2-4.2s4.9-1.5,9.3-0.4l-1.3,4.6L81,47l1.3-4.6
					c4.2,1.3,7.7,5.1,7.7,5.1s3.8,3.5,5.1,7.7l-4.9,1.1l1.5,5.3l4.6-1.3c1.1,4.4-0.4,9.3-0.4,9.3S94.7,74.4,91.6,77.7z"/>
			</g>
		</g>
	</g>
	<g>
		<g>
			<g>
				<path class="st0" d="M195.6,34.4c-16.3-16.3-42.6-16.3-58.9,0s-16.3,42.6,0,58.9c16.3,16.3,42.6,16.3,58.9,0
					C211.7,77,211.7,50.8,195.6,34.4z M146.1,84.1c-11.3-11.3-11.3-29.4,0-40.6s29.4-11.3,40.6,0s11.3,29.4,0,40.6
					C175.5,95.4,157.1,95.4,146.1,84.1z"/>
				<path class="st0" d="M184.1,46.1c-9.7-9.7-25.8-9.7-35.5,0c-9.7,9.7-9.7,25.8,0,35.5s25.8,9.7,35.5,0
					C194,71.7,194,55.9,184.1,46.1z M184.3,77.7l-3.5-3.3l-3.8,3.8l3.3,3.5c-3.1,3.1-8.2,4.2-8.2,4.2s-4.9,1.5-9.3,0.4l1.3-4.6
					l-5.3-1.3l-1.1,4.9c-4.2-1.3-7.7-5.1-7.7-5.1s-3.8-3.5-5.1-7.7l4.6-1.3l-1.1-5.3l-4.6,1.3c-1.1-4.4,0.4-9.3,0.4-9.3
					s1.1-5.1,4.2-8.2l3.5,3.3l3.8-3.8l-3.3-3.5c3.1-3.1,8.2-4.2,8.2-4.2s4.9-1.5,9.3-0.4l-1.3,4.6l5.1,1.3l1.3-4.6
					c4.2,1.3,7.7,5.1,7.7,5.1s3.8,3.5,5.1,7.7l-4.9,1.1l1.5,5.3l4.6-1.3c1.1,4.4-0.4,9.3-0.4,9.3S187.4,74.6,184.3,77.7z"/>
			</g>
		</g>
	</g>
	<rect x="73.2" y="100.7" class="st0" width="92.7" height="4.9"/>
	<text transform="matrix(0.9172 0 0 1 30.2237 141.105)" class="st0 st3 st4">Mixtaped</text>
</g>
<rect x="792.3" y="435.1" width="134.2" height="96.5"/>
<rect x="651" y="435.1" width="134.2" height="96.5"/>
<rect x="509.5" y="435.1" width="134.2" height="96.5"/>
<rect x="368.2" y="435.1" width="134.2" height="96.5"/>
<rect x="226.9" y="435.1" width="134.2" height="96.5"/>
<rect x="181.4" y="475.5" class="st5" width="38.9" height="22.7"/>
<rect x="181.4" y="435.1" class="st0" width="45.5" height="103.3"/>
<rect x="15.6" y="245.3" class="st1" width="149.7" height="21.9"/>
<rect x="15.6" y="268.9" class="st1" width="149.7" height="21.9"/>
<rect x="15.6" y="291" class="st1" width="149.7" height="21.9"/>
<rect x="15.6" y="312.8" class="st0" width="149.7" height="21.9"/>
<rect x="15.6" y="336" class="st1" width="149.7" height="21.9"/>
<rect x="15.6" y="354.3" class="st1" width="149.7" height="21.9"/>
<rect x="15.6" y="376" class="st1" width="149.7" height="21.9"/>
<g>
	<text transform="matrix(1 0 0 1 46.8565 260.5728)" class="st0 st6 st7">Home</text>
</g>
<text transform="matrix(1 0 0 1 46.8565 328.0903)" class="st1 st6 st7">MY STREAMS</text>
<text transform="matrix(1 0 0 1 46.8565 283.3267)" class="st0 st6 st7">subscriptions</text>
<text transform="matrix(1 0 0 1 46.8565 350.3618)" class="st0 st6 st7">genres</text>
<rect x="0" class="st8" width="1351.5" height="649.7"/>
<g>
	<circle class="st0" cx="31.7" cy="279.7" r="5.5"/>
	<circle class="st1" cx="31.7" cy="279.7" r="4.4"/>
	<polygon class="st0" points="31.7,280.6 30,281.9 30.6,279.9 28.9,278.6 31.1,278.6 31.7,276.4 32.4,278.6 34.6,278.6 32.8,279.9 
		33.5,281.9 	"/>
</g>
<text transform="matrix(1 0 0 1 46.8565 305.478)" class="st0 st6 st7">trending</text>
<g>
	<path class="st0" d="M28.9,297.4L28.9,297.4c-0.4,0-0.7,0.2-0.7,0.4v7.5c0,0.2,0.2,0.4,0.4,0.4l0,0c0.2,0,0.4-0.2,0.4-0.4v-7.5
		C29.5,297.6,29.3,297.4,28.9,297.4z"/>
	<path class="st0" d="M30.2,299.8L30.2,299.8c-0.2,0-0.4,0.2-0.4,0.4v3.3c0,0.2,0.2,0.4,0.4,0.4l0,0c0.2,0,0.4-0.2,0.4-0.4v-3.3
		C30.6,300,30.4,299.8,30.2,299.8z"/>
	<path class="st0" d="M33.1,299.8L33.1,299.8c-0.2,0-0.4,0.2-0.4,0.4v3.3c0,0.2,0.2,0.4,0.4,0.4l0,0c0.2,0,0.4-0.2,0.4-0.4v-3.3
		C33.3,300,33.1,299.8,33.1,299.8z"/>
	<path class="st0" d="M27.6,299.6L27.6,299.6c-0.2,0-0.4,0.2-0.4,0.4v3.5c0,0.2,0.2,0.4,0.4,0.4l0,0c0.2,0,0.4-0.2,0.4-0.4V300
		C28,299.8,27.8,299.6,27.6,299.6z"/>
	<path class="st0" d="M35.7,299.6L35.7,299.6c-0.2,0-0.4,0.2-0.4,0.4v3.5c0,0.2,0.2,0.4,0.4,0.4l0,0c0.2,0,0.4-0.2,0.4-0.4V300
		C35.9,299.8,35.9,299.6,35.7,299.6z"/>
	<path class="st0" d="M34.4,297.4L34.4,297.4c-0.4,0-0.7,0.2-0.7,0.4v7.5c0,0.2,0.2,0.4,0.4,0.4l0,0c0.2,0,0.4-0.2,0.4-0.4v-7.5
		C34.8,297.6,34.6,297.4,34.4,297.4z"/>
	<path class="st0" d="M31.5,300.9L31.5,300.9c-0.2,0-0.4,0.2-0.4,0.4v1.1c0,0.2,0.2,0.4,0.4,0.4l0,0c0.2,0,0.4-0.2,0.4-0.4v-1.1
		C32,300.9,31.7,300.9,31.5,300.9z"/>
	<path class="st0" d="M26.2,300.9L26.2,300.9c-0.2,0-0.2,0-0.2,0.2v1.1c0,0.2,0,0.2,0.2,0.2l0,0c0.2,0,0.2,0,0.2-0.2v-1.1
		C26.4,301.1,26.4,300.9,26.2,300.9z"/>
	<path class="st0" d="M37,300.9L37,300.9c-0.2,0-0.2,0-0.2,0.2v1.1c0,0.2,0,0.2,0.2,0.2l0,0c0.2,0,0.2,0,0.2-0.2v-1.1
		C37.3,301.1,37,300.9,37,300.9z"/>
</g>
<path class="st0" d="M37.5,256.8l-5.7-5.5c-0.2-0.2-0.4-0.2-0.4,0l-2.2,2V253c0-0.2,0-0.2-0.2-0.2h-1.5c-0.2,0-0.2,0-0.2,0.2v2.2
	l-1.8,1.5c-0.2,0.2,0,0.4,0.2,0.4h1.5v4.4c0,0.2,0.2,0.4,0.4,0.4H30c0.2,0,0.2-0.2,0.2-0.2v-2.4c0-0.2,0-0.2,0.2-0.2h0.9h0.9
	c0.2,0,0.2,0,0.2,0.2v2.4c0,0.2,0.2,0.2,0.2,0.2h2.4c0.2,0,0.4-0.2,0.4-0.4v-4.4H37C37.7,257.2,37.7,257,37.5,256.8z"/>
<path class="st0" d="M28.9,349.9c0-0.2,0-0.2,0-0.4c0-2.4,0-4.9,0-7.3c0-0.2,0-0.4,0.2-0.4c2.4-0.4,4.6-0.9,7.1-1.3
	c0.2,0,0.4,0,0.9-0.2c0,0.4,0,0.9,0,1.3c0,1.5,0,3.3,0,4.9c0,1.1,0,2.2,0,3.3c0,0.7-0.2,1.1-0.7,1.3c-0.7,0.7-1.5,0.7-2.4,0.4
	c-0.7-0.2-1.1-0.7-1.1-1.3c-0.2-0.7,0.2-1.3,0.7-1.5c0.7-0.4,1.5-0.7,2.2-0.4c0,0,0,0,0.2,0c0-1.8,0-3.3,0-5.1
	c-0.4,0-0.7,0.2-1.1,0.2c-1.5,0.2-3.3,0.7-4.9,0.9c-0.2,0-0.2,0.2-0.2,0.2c0,2,0,4.2,0,6.2c0,1.3-0.9,2.2-2.4,2.2
	c-0.7,0-1.3-0.4-1.8-1.1c-0.2-0.7,0-1.5,0.7-2c0.7-0.4,1.5-0.7,2.2-0.4C28.7,349.9,28.9,349.9,28.9,349.9z"/>
<g>
	<path class="st1" d="M33.7,320.8c0,0.7,0,1.3,0,2c0,0.9-0.7,1.8-1.5,2c-0.9,0.2-1.8,0-2.4-0.9c-0.2-0.4-0.4-0.7-0.4-1.1
		c0-1.5,0-2.9,0-4.4c0-0.9,0.7-1.8,1.5-2s2,0,2.4,0.9c0.2,0.4,0.4,0.7,0.4,1.1C33.7,319.5,33.7,320.1,33.7,320.8z"/>
	<path class="st1" d="M31.7,329.6c-0.7,0-1.1,0-1.8,0c-0.2,0-0.4-0.2-0.4-0.4s0.2-0.4,0.4-0.4c0.4,0,0.9,0,1.1,0l0,0
		c0-0.7,0-1.5,0-2.2l0,0c-1.5-0.2-2.9-1.3-3.1-2.9c0-0.2,0-0.7,0-0.9c0-0.2,0.2-0.4,0.4-0.4c0.2,0,0.4,0.2,0.4,0.4
		c0,0.4,0,0.7,0.2,1.1c0.4,1.3,1.8,2,3.1,1.8c1.5-0.2,2.4-1.3,2.6-2.9c0-0.2,0.2-0.4,0.4-0.4c0.2,0,0.4,0.2,0.4,0.4
		c0,1.8-1.3,3.3-3.1,3.8c-0.4,0-0.4,0-0.4,0.4c0,0.7,0,1.3,0,2c0,0,0,0.2,0.2,0.2c0.4,0,0.9,0,1.1,0c0.2,0,0.4,0.2,0.4,0.4
		c0,0.2-0.2,0.4-0.4,0.4C32.8,329.6,32.2,329.6,31.7,329.6z"/>
</g>
<g>
	<polygon class="st0" points="162.4,46.8 208.8,46.8 208.8,551.9 162.4,586.8 	"/>
	<g>
		<path class="st1" d="M206.6,49v501.6l-41.9,31.6V49H206.6 M211,44.6h-50.8V591l50.8-38.2V44.6L211,44.6z"/>
	</g>
</g>
<g>
	<polygon class="st0" points="1002.9,589 1002.9,46.8 1306.9,46.8 1306.9,60.7 1349.3,60.7 1349.3,589 	"/>
	<path class="st1" d="M1304.7,49v9.3v4.4h4.4h38v523.9h-342V87.6V58.3V49L1304.7,49 M1309.1,44.6h-308.4v13.7v29.4V591h350.8V58.5
		h-42.4V44.6L1309.1,44.6z"/>
</g>
<rect x="0" y="367.1" class="st1" width="160.1" height="109.5"/>
<rect x="0" y="496.3" class="st1" width="160.1" height="69.5"/>
<polygon class="st1" points="128.9,614.6 0,614.6 0,591.2 160.2,591.2 "/>
<polygon class="st1" points="163.1,0 132.2,0 0,0 0,355 0,355 0,650.1 164.4,650.1 164.4,587.3 192.2,561.6 164.4,582.4 
	164.4,274.3 163.1,274.3 163.1,85.7 211,58.5 283.9,44.6 311.9,0 "/>
<polygon class="st1" points="75,649.7 0,649.7 0,638 90.7,638 "/>
<polygon class="st1" points="1210,0 1231.2,44.4 1287.7,58.1 1308.7,87.9 1308.7,163.1 1351.5,205.1 1351.5,0 "/>
<rect x="23.1" y="109.1" class="st0" width="111.5" height="18.8"/>
<g class="st9">
	<path class="st10" d="M33,116.4c-0.6-0.8-1.3-0.9-1.7-0.9c-1.1,0-1.4,0.7-1.4,1.2c0,0.2,0.1,0.5,0.3,0.7c0.2,0.2,0.6,0.3,1.2,0.6
		c0.8,0.3,1.5,0.5,2.1,1c0.5,0.4,0.9,1.1,0.9,2.1c0,2-1.4,3.3-3.5,3.3c-1.9,0-3-1.1-3.5-1.9l1.3-1.2c0.5,1,1.4,1.4,2.1,1.4
		c0.9,0,1.6-0.5,1.6-1.4c0-0.4-0.1-0.7-0.4-0.9c-0.4-0.3-1-0.5-1.6-0.7c-0.5-0.2-1.2-0.4-1.7-0.9c-0.3-0.3-0.8-0.9-0.8-1.9
		c0-1.5,1-3,3.3-3c0.6,0,1.8,0.1,2.9,1.2L33,116.4z"/>
	<path class="st10" d="M42.3,122.4c-0.2,0.5-0.9,2.1-3.2,2.1c-1.1,0-1.9-0.3-2.5-0.9c-0.7-0.7-1-1.5-1-2.6c0-1.3,0.5-2.1,1-2.6
		c0.8-0.8,1.7-0.9,2.5-0.9c1.3,0,2.1,0.5,2.6,1.1c0.7,0.8,0.8,1.9,0.8,2.6v0.2h-4.9c0,0.4,0.1,0.8,0.3,1.1c0.2,0.3,0.6,0.6,1.3,0.6
		c0.7,0,1.2-0.3,1.5-0.9L42.3,122.4z M40.6,120c-0.2-0.9-0.9-1.3-1.6-1.3s-1.4,0.4-1.6,1.3H40.6z"/>
	<path class="st10" d="M49,117.6h1.9v6.6H49v-0.9c-0.7,1-1.6,1.1-2,1.1c-2,0-3.4-1.6-3.4-3.5c0-1.9,1.3-3.5,3.3-3.5
		c0.5,0,1.5,0.1,2.1,1.1V117.6z M45.5,120.9c0,1,0.8,1.9,1.8,1.9s1.8-0.8,1.8-1.9s-0.8-1.9-1.8-1.9S45.5,119.8,45.5,120.9z"/>
	<path class="st10" d="M52.6,117.6h1.9v1c0.3-0.6,0.7-0.8,0.8-0.9c0.3-0.2,0.7-0.3,1.1-0.3c0.3,0,0.6,0.1,0.8,0.2l-0.2,1.7
		c-0.2-0.2-0.5-0.2-0.9-0.2c-0.4,0-0.9,0.1-1.2,0.5c-0.4,0.4-0.4,1-0.4,1.5v3.2h-1.9V117.6z"/>
	<path class="st10" d="M62.9,119.6c-0.4-0.4-0.9-0.6-1.5-0.6c-1.2,0-1.9,0.9-1.9,1.9c0,1.1,0.8,1.9,1.9,1.9c0.4,0,1-0.1,1.5-0.6v1.8
		c-0.4,0.2-0.9,0.4-1.7,0.4c-1,0-1.9-0.4-2.5-1c-0.5-0.5-1-1.3-1-2.5c0-1.2,0.5-2.1,1.1-2.7c0.8-0.7,1.7-0.9,2.4-0.9
		c0.7,0,1.2,0.1,1.8,0.4V119.6z"/>
	<path class="st10" d="M64.3,113.1h1.9v5.4c0.4-0.5,1-1.1,2-1.1c0.6,0,1.4,0.2,1.9,0.8c0.5,0.6,0.5,1.2,0.5,1.9v4.1h-1.9v-3.6
		c0-0.4,0-0.9-0.3-1.3c-0.3-0.3-0.7-0.3-0.9-0.3c-0.5,0-0.9,0.2-1.1,0.6c-0.3,0.4-0.3,0.9-0.3,1.3v3.4h-1.9V113.1z"/>
</g>
<path class="st10" d="M126.2,119.9L126.2,119.9c0.7-1.1,1.1-2.2,1.1-3.8c0-3.5-2.9-6.4-6.4-6.4c-3.5,0-6.4,2.9-6.4,6.4
	s2.9,6.4,6.4,6.4c1.3,0,2.4-0.4,3.5-1.1l5.3,5.1l1.8-1.8L126.2,119.9z M120.9,120.5c-2.4,0-4.4-2-4.4-4.4s2-4.4,4.4-4.4
	s4.4,2,4.4,4.4S123.4,120.5,120.9,120.5z"/>
<g>
	<text transform="matrix(1 0 0 1 49.5469 151.312)" class="st0 st11 st12">Home</text>
</g>
<path class="st0" d="M41.7,145.3l-7.5-7.1c-0.2-0.2-0.4-0.2-0.7,0l-2.9,2.6v-0.4c0-0.2-0.2-0.2-0.2-0.2h-2c-0.2,0-0.2,0.2-0.2,0.2
	v2.9l-2.2,2c-0.2,0.2,0,0.7,0.2,0.7h2v5.7c0,0.4,0.2,0.7,0.7,0.7H32c0.2,0,0.4-0.2,0.4-0.4v-3.3c0-0.2,0.2-0.2,0.2-0.2H34h1.3
	c0.2,0,0.2,0.2,0.2,0.2v3.3c0,0.2,0.2,0.4,0.4,0.4H39c0.4,0,0.7-0.2,0.7-0.7v-5.7h2C41.9,145.9,41.9,145.5,41.7,145.3z"/>
<g>
	<path class="st0" d="M29.5,162.9L29.5,162.9c-0.7,0-1.1,0.4-1.1,0.9v12.8c0,0.4,0.4,0.9,0.9,0.9h0.2c0.4,0,0.9-0.4,0.9-0.9v-13
		C30.4,163.1,30,162.9,29.5,162.9z"/>
	<path class="st0" d="M31.7,166.9L31.7,166.9c-0.4,0-0.7,0.2-0.7,0.7v5.5c0,0.2,0.2,0.7,0.7,0.7l0,0c0.2,0,0.7-0.2,0.7-0.7v-5.5
		C32.2,167.1,32,166.9,31.7,166.9z"/>
	<path class="st0" d="M36.2,166.9L36.2,166.9c-0.4,0-0.7,0.2-0.7,0.7v5.5c0,0.2,0.2,0.7,0.7,0.7l0,0c0.2,0,0.7-0.2,0.7-0.7v-5.5
		C36.8,167.1,36.6,166.9,36.2,166.9z"/>
	<path class="st0" d="M27.1,166.5L27.1,166.5c-0.4,0-0.7,0.2-0.7,0.7v6.2c0,0.2,0.2,0.7,0.7,0.7l0,0c0.2,0,0.7-0.2,0.7-0.7v-6.2
		C27.8,166.7,27.6,166.5,27.1,166.5z"/>
	<path class="st0" d="M40.8,166.5L40.8,166.5c-0.4,0-0.7,0.2-0.7,0.7v6.2c0,0.2,0.2,0.7,0.7,0.7l0,0c0.2,0,0.7-0.2,0.7-0.7v-6.2
		C41.5,166.7,41,166.5,40.8,166.5z"/>
	<path class="st0" d="M38.6,162.9L38.6,162.9c-0.7,0-1.1,0.4-1.1,0.9v12.8c0,0.4,0.4,0.9,0.9,0.9h0.2c0.4,0,0.9-0.4,0.9-0.9v-13
		C39.5,163.1,39,162.9,38.6,162.9z"/>
	<path class="st0" d="M34,168.7L34,168.7c-0.4,0-0.7,0.2-0.7,0.7v2c0,0.2,0.2,0.7,0.7,0.7l0,0c0.2,0,0.7-0.2,0.7-0.7v-2
		C34.6,168.9,34.2,168.7,34,168.7z"/>
	<path class="st0" d="M24.9,168.9L24.9,168.9c-0.2,0-0.4,0.2-0.4,0.4v2c0,0.2,0.2,0.4,0.4,0.4l0,0c0.2,0,0.4-0.2,0.4-0.4v-2
		C25.3,168.9,25.1,168.9,24.9,168.9z"/>
	<path class="st0" d="M43,168.9L43,168.9c-0.2,0-0.4,0.2-0.4,0.4v2c0,0.2,0.2,0.4,0.4,0.4l0,0c0.2,0,0.4-0.2,0.4-0.4v-2
		C43.4,168.9,43.2,168.9,43,168.9z"/>
</g>
<g>
	<text transform="matrix(1 0 0 1 49.5469 175.5962)" class="st0 st11 st12">Trending</text>
</g>
<rect x="283.9" class="st13" width="946.7" height="44.8"/>
<g class="st9">
	<path class="st1" d="M192.4,490.2c0.7,0,1.4,0.3,1.9,0.8c0.5,0.5,0.8,1.1,0.8,1.9V506h-3.7v-11.9h-4.8v9.3c0,0.7-0.3,1.4-0.8,1.9
		c-0.5,0.5-1.1,0.8-1.9,0.8h-4.8c-0.7,0-1.4-0.3-1.9-0.8c-0.5-0.5-0.8-1.1-0.8-1.9v-13.2h3.7v11.9h2.6v-9.3c0-0.7,0.3-1.4,0.8-1.9
		c0.5-0.5,1.1-0.8,1.9-0.8H192.4z"/>
	<path class="st1" d="M195,475.8h-8.5v7.9h8.5v4h-18.5v-4h6.4v-7.9h-6.4v-4H195V475.8z"/>
	<path class="st1" d="M192.4,453.5c0.7,0,1.4,0.3,1.9,0.8c0.5,0.5,0.8,1.1,0.8,1.9v10.6c0,0.7-0.3,1.4-0.8,1.9
		c-0.5,0.5-1.1,0.8-1.9,0.8h-13.2c-0.7,0-1.4-0.3-1.9-0.8c-0.5-0.5-0.8-1.1-0.8-1.9v-10.6c0-0.7,0.3-1.4,0.8-1.9
		c0.5-0.5,1.1-0.8,1.9-0.8H192.4z M180.2,457.5v7.9h11.1v-7.9H180.2z"/>
	<path class="st1" d="M195,431.2v5l-3.7,1.5l3.7,1.5v5l-18.5,7.4v-4.5l13.6-5.4l-4.3-1.7l-9.3,3.7v-4.5l3.6-1.5l-3.6-1.5v-4.5
		l9.3,3.7l4.3-1.7l-13.6-5.4v-4.5L195,431.2z"/>
	<path class="st1" d="M180.2,400.4H195v4h-14.8v6.2h-3.7v-15.9h3.7V400.4z"/>
	<path class="st1" d="M192.4,377.1c0.7,0,1.4,0.3,1.9,0.8c0.5,0.5,0.8,1.1,0.8,1.9v10.6c0,0.7-0.3,1.4-0.8,1.9
		c-0.5,0.5-1.1,0.8-1.9,0.8h-13.2c-0.7,0-1.4-0.3-1.9-0.8c-0.5-0.5-0.8-1.1-0.8-1.9v-10.6c0-0.7,0.3-1.4,0.8-1.9
		c0.5-0.5,1.1-0.8,1.9-0.8H192.4z M180.2,381v7.9h11.1V381H180.2z"/>
	<path class="st1" d="M183.9,358.7c0.7,0,1.4,0.3,1.9,0.8c0.5,0.5,0.8,1.1,0.8,1.9v9.3h8.5v4h-18.5v-13.2c0-0.7,0.3-1.4,0.8-1.9
		c0.5-0.5,1.1-0.8,1.9-0.8H183.9z M180.2,362.7v7.9h2.6v-7.9H180.2z"/>
	<path class="st1" d="M195,342.7c0,0.7-0.3,1.4-0.8,1.9c-0.5,0.5-1.1,0.8-1.9,0.8h-13.2c-0.7,0-1.4-0.3-1.9-0.8
		c-0.5-0.5-0.8-1.1-0.8-1.9v-11.9h3.7v10.6h11.1v-10.6h3.7V342.7z"/>
	<path class="st1" d="M192.4,313.2c0.7,0,1.4,0.3,1.9,0.8c0.5,0.5,0.8,1.1,0.8,1.9v10.6c0,0.7-0.3,1.4-0.8,1.9
		c-0.5,0.5-1.1,0.8-1.9,0.8h-13.2c-0.7,0-1.4-0.3-1.9-0.8c-0.5-0.5-0.8-1.1-0.8-1.9v-10.6c0-0.7,0.3-1.4,0.8-1.9
		c0.5-0.5,1.1-0.8,1.9-0.8H192.4z M180.2,317.2v7.9h11.1v-7.9H180.2z"/>
	<path class="st1" d="M195,294.6h-9.3l9.3,4.5v3.2l-9.3,4.5h9.3v4h-18.5v-4l12.6-6l-12.6-6.1v-4H195V294.6z"/>
	<path class="st1" d="M195,272h-9.3l9.3,4.5v3.2l-9.3,4.5h9.3v4h-18.5v-4l12.6-6l-12.6-6.1v-4H195V272z"/>
	<path class="st1" d="M195,263c0,0.7-0.3,1.4-0.8,1.9c-0.5,0.5-1.1,0.8-1.9,0.8h-13.2c-0.7,0-1.4-0.3-1.9-0.8
		c-0.5-0.5-0.8-1.1-0.8-1.9v-11.9h3.7v10.6h2.6v-10.6h3.7v10.6h4.8v-10.6h3.7V263z"/>
	<path class="st1" d="M195,237.4l-11.1,7.9H195v4h-18.5v-4l11.1-7.9h-11.1v-4H195V237.4z"/>
	<path class="st1" d="M180.2,221.5H195v4h-14.8v6.2h-3.7v-15.9h3.7V221.5z"/>
	<path class="st1" d="M192.4,198.1c0.7,0,1.4,0.3,1.9,0.8c0.5,0.5,0.8,1.1,0.8,1.9V214h-3.7v-11.9h-4.8v9.3c0,0.7-0.3,1.4-0.8,1.9
		c-0.5,0.5-1.1,0.8-1.9,0.8h-4.8c-0.7,0-1.4-0.3-1.9-0.8c-0.5-0.5-0.8-1.1-0.8-1.9v-13.2h3.7V210h2.6v-9.3c0-0.7,0.3-1.4,0.8-1.9
		c0.5-0.5,1.1-0.8,1.9-0.8H192.4z"/>
</g>
<line class="st13" x1="128.9" y1="614.6" x2="488.3" y2="344.6"/>
<polygon class="st14" points="176.8,138.2 195.1,158.3 176.8,178.6 "/>
<rect x="224.9" y="66.7" class="st15" width="760.1" height="427.2"/>
<g class="st9">
	<path class="st1" d="M1025.3,78.8c-0.7,0-1.4-0.3-1.9-0.8c-0.5-0.5-0.8-1.1-0.8-1.9V60.3h4v14.8h10.6v3.7H1025.3z"/>
	<path class="st1" d="M1038.7,78.8V60.3h4v18.5H1038.7z"/>
	<path class="st1" d="M1056.9,78.8h-5l-7.4-18.5h4.5l5.4,13.6l5.4-13.6h4.5L1056.9,78.8z"/>
	<path class="st1" d="M1068.7,78.8c-0.7,0-1.4-0.3-1.9-0.8c-0.5-0.5-0.8-1.1-0.8-1.9V62.9c0-0.7,0.3-1.4,0.8-1.9
		c0.5-0.5,1.1-0.8,1.9-0.8h11.9V64h-10.6v2.6h10.6v3.7h-10.6v4.8h10.6v3.7H1068.7z"/>
	<path class="st1" d="M1096.9,78.8c-0.7,0-1.4-0.3-1.9-0.8c-0.5-0.5-0.8-1.1-0.8-1.9V62.9c0-0.7,0.3-1.4,0.8-1.9
		c0.5-0.5,1.1-0.8,1.9-0.8h11.9V64h-10.6v11.1h10.6v3.7H1096.9z"/>
	<path class="st1" d="M1126.4,76.2c0,0.7-0.3,1.4-0.8,1.9c-0.5,0.5-1.1,0.8-1.9,0.8h-10.6c-0.7,0-1.4-0.3-1.9-0.8
		c-0.5-0.5-0.8-1.1-0.8-1.9V62.9c0-0.7,0.3-1.4,0.8-1.9c0.5-0.5,1.1-0.8,1.9-0.8h10.6c0.7,0,1.4,0.3,1.9,0.8
		c0.5,0.5,0.8,1.1,0.8,1.9V76.2z M1122.4,64h-7.9v11.1h7.9V64z"/>
	<path class="st1" d="M1145,78.8v-9.3l-4.5,9.3h-3.2l-4.5-9.3v9.3h-4V60.3h4l6,12.6l6.1-12.6h4v18.5H1145z"/>
	<path class="st1" d="M1167.6,78.8v-9.3l-4.5,9.3h-3.2l-4.5-9.3v9.3h-4V60.3h4l6,12.6l6.1-12.6h4v18.5H1167.6z"/>
	<path class="st1" d="M1176.6,78.8c-0.7,0-1.4-0.3-1.9-0.8c-0.5-0.5-0.8-1.1-0.8-1.9V62.9c0-0.7,0.3-1.4,0.8-1.9
		c0.5-0.5,1.1-0.8,1.9-0.8h11.9V64h-10.6v2.6h10.6v3.7h-10.6v4.8h10.6v3.7H1176.6z"/>
	<path class="st1" d="M1202.2,78.8l-7.9-11.1v11.1h-4V60.3h4l7.9,11.1V60.3h4v18.5H1202.2z"/>
	<path class="st1" d="M1218.1,64v14.8h-4V64h-6.2v-3.7h15.9V64H1218.1z"/>
	<path class="st1" d="M1241.5,76.2c0,0.7-0.3,1.4-0.8,1.9c-0.5,0.5-1.1,0.8-1.9,0.8h-13.2v-3.7h11.9v-4.8h-9.3
		c-0.7,0-1.4-0.3-1.9-0.8c-0.5-0.5-0.8-1.1-0.8-1.9v-4.8c0-0.7,0.3-1.4,0.8-1.9c0.5-0.5,1.1-0.8,1.9-0.8h13.2V64h-11.9v2.6h9.3
		c0.7,0,1.4,0.3,1.9,0.8c0.5,0.5,0.8,1.1,0.8,1.9V76.2z"/>
</g>
<line class="st16" x1="1308.7" y1="87.9" x2="1000.7" y2="87.9"/>
<g>
	<path class="st1" d="M1330.7,539.6v47H1021v-47H1330.7 M1335.2,535.1h-318.6V591h318.6V535.1L1335.2,535.1z"/>
</g>
<text transform="matrix(1 0 0 1 1033.1973 571.0073)" class="st17 st18">Send a Message</text>
<rect x="1242.9" y="602.9" class="st19" width="86.8" height="35.1"/>
<text transform="matrix(1 0 0 1 1250.6543 630.2661)" class="st1 st6 st20">Send</text>
<line class="st16" x1="230.4" y1="44.6" x2="1230.5" y2="44.6"/>
<g class="st9">
	<path d="M333.4,13.4c3,0,5.6,0.3,8,2.1c2.6,2,4.1,5.1,4.1,8.7S344,31,341.2,33c-2.5,1.8-4.9,2.1-7.9,2.1h-5.6V13.4H333.4z
		 M331.9,31.4h1.3c1.1,0,3.4-0.1,5.3-1.4c1.7-1.2,2.7-3.4,2.7-5.7c0-2.3-0.9-4.5-2.7-5.8c-1.7-1.3-3.9-1.4-5.3-1.4h-1.3V31.4z"/>
	<path d="M356.4,13.4V28c0,1.9-0.1,4.9-2.5,6.5c-0.9,0.6-2.2,1-3.5,1c-1.6,0-3.4-0.5-5-2l2.6-3.1c0.4,0.6,1.1,1.2,2.1,1.2
		c0.9,0,1.4-0.4,1.7-0.7c0.5-0.7,0.5-2.2,0.5-3.5V13.4H356.4z"/>
	<path d="M380.9,17.1h-7.8v4.8h7.4v3.6h-7.4v5.9h7.8V35h-12V13.4h12V17.1z"/>
	<path d="M388.3,11.4V35h-4V11.4H388.3z"/>
	<path d="M406.5,13.4c3,0,4.5,0.8,5.5,1.6c1.7,1.4,2.1,3.2,2.1,4.9c0,2.1-0.8,4-2.5,5.1c-0.6,0.4-1.3,0.7-2.4,0.9l6.7,9.1h-5.2
		l-5.8-8.7h-0.5V35h-4.2V13.4H406.5z M404.4,23.4h1.2c0.8,0,4.1-0.1,4.1-3.3c0-3.2-3.3-3.2-4.1-3.2h-1.3V23.4z"/>
	<path d="M432,31.1c-0.4,1-2,4.4-6.9,4.4c-2.3,0-4-0.6-5.4-2c-1.6-1.5-2.2-3.3-2.2-5.5c0-2.8,1.1-4.5,2.1-5.5c1.7-1.6,3.6-2,5.3-2
		c2.8,0,4.5,1.1,5.5,2.3c1.5,1.8,1.7,4,1.7,5.5v0.3h-10.5c0,0.8,0.2,1.7,0.7,2.4c0.4,0.6,1.3,1.3,2.8,1.3c1.5,0,2.6-0.7,3.3-1.8
		L432,31.1z M428.3,26.2c-0.3-1.9-1.9-2.8-3.3-2.8s-3,0.9-3.3,2.8H428.3z"/>
	<path d="M435.1,21h4v1.8c0.7-1,2.1-2.3,4.3-2.3c1.2,0,3,0.4,4.1,1.7c1,1.2,1.1,2.6,1.1,4V35h-4v-7.6c0-0.8,0-2-0.7-2.8
		c-0.6-0.6-1.5-0.7-1.8-0.7c-1,0-1.8,0.4-2.4,1.2c-0.6,0.9-0.6,1.9-0.6,2.7V35h-4V21z"/>
	<path d="M457.8,31.7h7.4V35h-14.3l8-10.7h-6.7V21h13.7L457.8,31.7z"/>
</g>
<line class="st2" x1="492.3" y1="7.3" x2="492.3" y2="38"/>
<g class="st9">
	<path d="M514.1,13.4l5.8,14.5l5.8-14.5h4.6L521.1,35h-2.5l-9.1-21.6H514.1z"/>
	<path d="M534.1,12.7c1.3,0,2.4,1.1,2.4,2.4s-1.1,2.4-2.4,2.4c-1.3,0-2.4-1.1-2.4-2.4S532.9,12.7,534.1,12.7z M536.1,21v14h-3.9V21
		H536.1z"/>
	<path d="M550.6,11.4h3.9V35h-3.9v-1.8c-1.4,2-3.3,2.3-4.3,2.3c-4.3,0-7.2-3.4-7.2-7.5c0-4.1,2.8-7.4,7-7.4c1.1,0,3.2,0.2,4.5,2.3
		V11.4z M543.2,28c0,2.2,1.6,4,3.9,4c2.3,0,3.9-1.7,3.9-4s-1.6-3.9-3.9-3.9C544.9,24.1,543.2,25.8,543.2,28z"/>
	<path d="M572.1,31.1c-0.4,1-2,4.4-6.9,4.4c-2.3,0-4-0.6-5.4-2c-1.6-1.5-2.2-3.3-2.2-5.5c0-2.8,1.1-4.5,2.1-5.5c1.7-1.6,3.6-2,5.3-2
		c2.8,0,4.5,1.1,5.5,2.3c1.5,1.8,1.7,4,1.7,5.5v0.3h-10.5c0,0.8,0.2,1.7,0.7,2.4c0.4,0.6,1.3,1.3,2.8,1.3c1.5,0,2.6-0.7,3.3-1.8
		L572.1,31.1z M568.5,26.2c-0.3-1.9-1.9-2.8-3.3-2.8c-1.5,0-3,0.9-3.3,2.8H568.5z"/>
	<path d="M588.2,22.5c1.4,1.3,2.4,3.2,2.4,5.5c0,2.3-1,4.2-2.4,5.5c-1.2,1.1-3,2-5.7,2s-4.5-0.9-5.7-2c-1.4-1.3-2.4-3.2-2.4-5.5
		c0-2.3,1-4.2,2.4-5.5c1.2-1.1,3-2,5.7-2S587,21.4,588.2,22.5z M586.5,28c0-2.2-1.7-4-3.9-4s-3.9,1.8-3.9,4c0,2.1,1.7,3.9,3.9,3.9
		S586.5,30.2,586.5,28z"/>
	<path d="M600.6,24.4c-0.9-0.9-1.9-0.9-2.3-0.9c-0.9,0-1.5,0.5-1.5,1.1c0,0.4,0.2,0.9,1.3,1.3l0.9,0.3c1.1,0.4,2.8,0.9,3.6,2
		c0.4,0.6,0.7,1.4,0.7,2.3c0,1.3-0.4,2.5-1.6,3.6s-2.5,1.5-4.2,1.5c-2.9,0-4.6-1.4-5.4-2.3l2.1-2.4c0.8,0.9,1.9,1.6,3.1,1.6
		c1.1,0,1.9-0.6,1.9-1.5c0-0.9-0.7-1.2-1.2-1.4l-0.9-0.3c-1-0.4-2.2-0.8-3-1.7c-0.6-0.7-1.1-1.6-1.1-2.7c0-1.4,0.6-2.5,1.5-3.2
		c1.1-0.9,2.5-1,3.7-1c1,0,2.7,0.1,4.5,1.5L600.6,24.4z"/>
</g>
<g>
	<text transform="matrix(1 0 0 1 620.8457 35.0317)" class="st10 st21 st22">1</text>
</g>
<line class="st2" x1="664.5" y1="7.9" x2="664.5" y2="38.6"/>
<path class="st1" d="M810.8,37.8H688.5c-3.5,0-6.2-2.9-6.2-6.2V14.1c0-3.5,2.9-6.2,6.2-6.2h122.3c3.5,0,6.2,2.9,6.2,6.2v17.4
	C817,34.9,814.1,37.8,810.8,37.8z"/>
<g class="st9">
	<path class="st0" d="M702.2,28.6c0,0.6-0.2,1.1-0.6,1.5s-0.9,0.6-1.5,0.6h-10.9v-3h9.8v-3.9h-7.6c-0.6,0-1.1-0.2-1.5-0.6
		c-0.4-0.4-0.6-0.9-0.6-1.5v-3.9c0-0.6,0.2-1.1,0.6-1.5c0.4-0.4,0.9-0.6,1.5-0.6h10.9v3h-9.8v2.2h7.6c0.6,0,1.1,0.2,1.5,0.6
		c0.4,0.4,0.6,0.9,0.6,1.5V28.6z"/>
	<path class="st0" d="M717.3,28.6c0,0.6-0.2,1.1-0.6,1.5c-0.4,0.4-0.9,0.6-1.5,0.6h-8.7c-0.6,0-1.1-0.2-1.5-0.6
		c-0.4-0.4-0.6-0.9-0.6-1.5v-13h3.3v12.2h6.5V15.5h3.3V28.6z"/>
	<path class="st0" d="M732.3,28.6c0,0.6-0.2,1.1-0.6,1.5c-0.4,0.4-0.9,0.6-1.5,0.6h-10.9V15.5h10.9c0.6,0,1.1,0.2,1.5,0.6
		c0.4,0.4,0.6,0.9,0.6,1.5v2.4c0,0.6-0.2,1.1-0.6,1.5c-0.4,0.4-0.9,0.6-1.5,0.6c0.6,0,1.1,0.2,1.5,0.6c0.4,0.4,0.6,0.9,0.6,1.5V28.6
		z M729,18.6h-6.5v2.2h6.5V18.6z M729,23.8h-6.5v3.9h6.5V23.8z"/>
	<path class="st0" d="M747.3,28.6c0,0.6-0.2,1.1-0.6,1.5s-0.9,0.6-1.5,0.6h-10.9v-3h9.8v-3.9h-7.6c-0.6,0-1.1-0.2-1.5-0.6
		c-0.4-0.4-0.6-0.9-0.6-1.5v-3.9c0-0.6,0.2-1.1,0.6-1.5c0.4-0.4,0.9-0.6,1.5-0.6h10.9v3h-9.8v2.2h7.6c0.6,0,1.1,0.2,1.5,0.6
		c0.4,0.4,0.6,0.9,0.6,1.5V28.6z"/>
	<path class="st0" d="M751.5,30.8c-0.6,0-1.1-0.2-1.5-0.6c-0.4-0.4-0.6-0.9-0.6-1.5V17.7c0-0.6,0.2-1.1,0.6-1.5
		c0.4-0.4,0.9-0.6,1.5-0.6h9.8v3h-8.7v9.1h8.7v3H751.5z"/>
	<path class="st0" d="M772.4,30.8v-7h-6.5v7h-3.3V15.5h10.9c0.6,0,1.1,0.2,1.5,0.6c0.4,0.4,0.6,0.9,0.6,1.5v2.4
		c0,0.6-0.2,1.1-0.6,1.5c-0.4,0.4-0.9,0.6-1.5,0.6c0.6,0,1.1,0.2,1.5,0.6c0.4,0.4,0.6,0.9,0.6,1.5v6.3H772.4z M772.4,18.6h-6.5v2.2
		h6.5V18.6z"/>
	<path class="st0" d="M777.7,30.8V15.5h3.3v15.2H777.7z"/>
	<path class="st0" d="M796,28.6c0,0.6-0.2,1.1-0.6,1.5c-0.4,0.4-0.9,0.6-1.5,0.6H783V15.5h10.9c0.6,0,1.1,0.2,1.5,0.6
		c0.4,0.4,0.6,0.9,0.6,1.5v2.4c0,0.6-0.2,1.1-0.6,1.5c-0.4,0.4-0.9,0.6-1.5,0.6c0.6,0,1.1,0.2,1.5,0.6c0.4,0.4,0.6,0.9,0.6,1.5V28.6
		z M792.7,18.6h-6.5v2.2h6.5V18.6z M792.7,23.8h-6.5v3.9h6.5V23.8z"/>
	<path class="st0" d="M800.1,30.8c-0.6,0-1.1-0.2-1.5-0.6c-0.4-0.4-0.6-0.9-0.6-1.5V17.7c0-0.6,0.2-1.1,0.6-1.5
		c0.4-0.4,0.9-0.6,1.5-0.6h9.8v3h-8.7v2.2h8.7v3h-8.7v3.9h8.7v3H800.1z"/>
</g>
<g class="st9">
	<path d="M253.9,529.5h-7.1l-1.6,3.7h-3.7l7.6-17.7h2.7l7.4,17.7h-3.7L253.9,529.5z M252.8,526.7l-2.5-6.4l-2.5,6.4H252.8z"/>
	<path d="M264,524.5v8.7h-3.2v-8.7h-1.2v-2.8h1.2v-3.2c0-1.1,0.1-2.9,1.5-4.1c0.7-0.6,1.6-1,2.8-1c0.7,0,1.3,0.1,1.9,0.4v2.9
		c-0.5-0.3-0.9-0.5-1.5-0.5c-0.4,0-0.8,0.1-1.2,0.6c-0.3,0.4-0.3,1-0.3,2v2.7h3v2.8H264z"/>
	<path d="M268.5,521.7h3.2v1.7c0.5-1,1.2-1.5,1.4-1.6c0.5-0.3,1.1-0.5,1.9-0.5c0.6,0,1,0.1,1.4,0.3l-0.4,3c-0.4-0.3-0.8-0.4-1.5-0.4
		c-0.6,0-1.5,0.1-2.1,0.9c-0.6,0.8-0.6,1.7-0.6,2.5v5.5h-3.2V521.7z"/>
	<path d="M288.3,523c1.1,1,1.9,2.6,1.9,4.5c0,1.9-0.8,3.4-1.9,4.5c-1,0.9-2.5,1.6-4.6,1.6s-3.7-0.7-4.6-1.6c-1.1-1-1.9-2.6-1.9-4.5
		c0-1.9,0.8-3.5,1.9-4.5c1-0.9,2.5-1.6,4.6-1.6S287.4,522.1,288.3,523z M286.9,527.5c0-1.8-1.4-3.3-3.2-3.3s-3.2,1.5-3.2,3.3
		c0,1.7,1.4,3.2,3.2,3.2S286.9,529.2,286.9,527.5z"/>
	<path d="M298.8,518.5v14.7h-3.4v-14.7h-4v-3h11.4v3H298.8z"/>
	<path d="M303.4,521.7h3.2v1.7c0.5-1,1.2-1.5,1.4-1.6c0.5-0.3,1.1-0.5,1.9-0.5c0.6,0,1,0.1,1.4,0.3l-0.4,3c-0.4-0.3-0.8-0.4-1.5-0.4
		c-0.6,0-1.5,0.1-2.1,0.9c-0.6,0.8-0.6,1.7-0.6,2.5v5.5h-3.2V521.7z"/>
	<path d="M321.4,521.7h3.2v11.5h-3.2v-1.5c-1.2,1.7-2.7,1.9-3.5,1.9c-3.5,0-5.9-2.8-5.9-6.1c0-3.4,2.3-6.1,5.7-6.1
		c0.9,0,2.6,0.2,3.7,1.9V521.7z M315.4,527.5c0,1.8,1.3,3.3,3.2,3.3c1.9,0,3.2-1.4,3.2-3.3c0-1.8-1.3-3.2-3.2-3.2
		C316.7,524.2,315.4,525.6,315.4,527.5z"/>
	<path d="M331,539.3h-3.2v-17.5h3.2v1.5c0.5-0.7,1.6-1.9,3.7-1.9c1,0,2.6,0.2,3.9,1.5c0.8,0.8,1.7,2.3,1.7,4.6c0,2.6-1.1,4-1.8,4.6
		c-0.9,0.8-2.2,1.5-3.9,1.5c-0.8,0-2.4-0.1-3.7-1.9V539.3z M331.7,525c-0.7,0.6-1.1,1.4-1.1,2.5s0.4,1.9,1.1,2.5
		c0.4,0.4,1.1,0.8,2.1,0.8c1.1,0,1.7-0.4,2.2-0.8c0.7-0.6,1-1.6,1-2.4s-0.3-1.8-1-2.4c-0.6-0.5-1.4-0.8-2.2-0.8
		C333,524.2,332.3,524.5,331.7,525z"/>
	<path d="M362.3,532.6c-1.1,0.6-2.5,1-4.4,1c-3.1,0-5-1.1-6.5-2.5c-2-2-2.8-4.2-2.8-6.8c0-3.2,1.3-5.5,2.8-6.9
		c1.8-1.7,4-2.3,6.5-2.3c1.2,0,2.7,0.2,4.3,1.1v4c-1.6-1.9-3.6-2-4.3-2c-3.5,0-5.9,2.9-5.9,6.2c0,3.9,3,6,6,6c1.6,0,3.1-0.7,4.1-1.9
		V532.6z"/>
	<path d="M365,513.9h3.2v9.3c0.6-0.8,1.7-1.9,3.5-1.9c1,0,2.5,0.3,3.4,1.4c0.8,1,0.9,2.1,0.9,3.2v7.2h-3.2V527c0-0.6,0-1.6-0.6-2.3
		c-0.5-0.5-1.2-0.6-1.5-0.6c-0.8,0-1.5,0.3-2,1c-0.5,0.7-0.5,1.6-0.5,2.2v5.9H365V513.9z"/>
	<path d="M388,521.7h3.2v11.5H388v-1.5c-1.2,1.7-2.7,1.9-3.5,1.9c-3.5,0-5.9-2.8-5.9-6.1c0-3.4,2.3-6.1,5.7-6.1
		c0.9,0,2.6,0.2,3.7,1.9V521.7z M381.9,527.5c0,1.8,1.3,3.3,3.2,3.3c1.9,0,3.2-1.4,3.2-3.3c0-1.8-1.3-3.2-3.2-3.2
		C383.2,524.2,381.9,525.6,381.9,527.5z"/>
	<path d="M394.3,521.7h3.2v1.3c1.2-1.5,2.7-1.7,3.4-1.7c2.4,0,3.3,1.5,3.6,2.1c0.6-0.9,1.7-2.1,3.7-2.1c1.8,0,2.6,0.8,3.1,1.4
		c0.7,1,0.8,2,0.8,3.2v7.2h-3.2V527c0-1.4-0.3-2-0.5-2.3c-0.4-0.5-1-0.6-1.3-0.6c-0.9,0-1.4,0.4-1.8,1c-0.4,0.7-0.5,1.6-0.5,2.2v5.9
		h-3.2V527c0-1.4-0.3-2-0.5-2.3c-0.4-0.5-1-0.6-1.3-0.6c-0.9,0-1.4,0.4-1.8,1c-0.4,0.7-0.5,1.6-0.5,2.2v5.9h-3.2V521.7z"/>
	<path d="M418.4,539.3h-3.2v-17.5h3.2v1.5c0.5-0.7,1.6-1.9,3.7-1.9c1,0,2.6,0.2,3.9,1.5c0.8,0.8,1.7,2.3,1.7,4.6
		c0,2.6-1.1,4-1.8,4.6c-0.9,0.8-2.2,1.5-3.9,1.5c-0.8,0-2.4-0.1-3.7-1.9V539.3z M419.2,525c-0.7,0.6-1.1,1.4-1.1,2.5
		s0.4,1.9,1.1,2.5c0.4,0.4,1.1,0.8,2.1,0.8c1.1,0,1.7-0.4,2.2-0.8c0.7-0.6,1-1.6,1-2.4s-0.3-1.8-1-2.4c-0.6-0.5-1.4-0.8-2.2-0.8
		C420.4,524.2,419.8,524.5,419.2,525z"/>
	<path d="M439.1,521.7h3.2v11.5h-3.2v-1.5c-1.2,1.7-2.7,1.9-3.5,1.9c-3.5,0-5.9-2.8-5.9-6.1c0-3.4,2.3-6.1,5.7-6.1
		c0.9,0,2.6,0.2,3.7,1.9V521.7z M433,527.5c0,1.8,1.3,3.3,3.2,3.3c1.9,0,3.2-1.4,3.2-3.3c0-1.8-1.3-3.2-3.2-3.2
		C434.4,524.2,433,525.6,433,527.5z"/>
	<path d="M447,515c1.1,0,1.9,0.9,1.9,1.9s-0.9,1.9-1.9,1.9s-1.9-0.9-1.9-1.9S445.9,515,447,515z M448.6,521.7v11.5h-3.2v-11.5H448.6
		z"/>
	<path d="M460.4,521.7h3.2v10.9c0,1.7-0.2,3.6-1.6,5c-0.8,0.8-2.2,1.6-4.5,1.6c-2.2,0-3.5-0.7-4.3-1.3c-0.9-0.8-1.6-2.1-1.9-3.4h3.5
		c0.1,0.5,0.4,1.1,0.8,1.4c0.6,0.6,1.5,0.6,2,0.6c0.9,0,1.5-0.3,2-0.7c0.7-0.7,0.8-1.6,0.8-2.5v-1.6c-1.1,1.7-2.6,1.9-3.5,1.9
		c-1.5,0-2.9-0.5-4-1.6c-0.8-0.8-1.8-2.3-1.8-4.6c0-1.8,0.7-3.5,1.8-4.6c1-1,2.4-1.5,3.9-1.5c2.1,0,3.2,1.2,3.6,1.9V521.7z
		 M455.5,525c-0.5,0.5-1,1.2-1,2.4c0,1,0.4,1.7,0.8,2.3c0.7,0.7,1.6,1,2.3,1c0.8,0,1.6-0.3,2.1-0.8c0.7-0.6,1-1.5,1-2.5
		c0-1.1-0.5-1.8-0.9-2.3c-0.6-0.7-1.4-0.9-2.3-0.9C456.6,524.2,455.9,524.7,455.5,525z"/>
	<path d="M466.7,521.7h3.2v1.5c0.6-0.8,1.7-1.9,3.5-1.9c1,0,2.5,0.3,3.4,1.4c0.8,1,0.9,2.1,0.9,3.2v7.2h-3.2V527
		c0-0.6,0-1.6-0.6-2.3c-0.5-0.5-1.2-0.6-1.5-0.6c-0.8,0-1.5,0.3-2,1c-0.5,0.7-0.5,1.6-0.5,2.2v5.9h-3.2V521.7z"/>
	<path d="M491.2,527.3c0.3-0.4,2.4-2.7,3-3.7c0.5-0.7,1-1.8,1-2.8c0-1.6-1.1-2.7-2.6-2.7c-1.8,0-2.8,1.4-2.8,2.9h-3.5
		c0.2-3.6,2.7-5.9,6.2-5.9c4.1,0,6.2,2.8,6.2,5.6c0,2.7-1.8,4.7-3.2,6.2l-3,3.3h6.4v3H486L491.2,527.3z"/>
	<path d="M501.3,524.4c0-6.1,3.3-9.2,6.8-9.2s6.8,3.2,6.8,9.2c0,6.1-3.3,9.2-6.8,9.2S501.3,530.5,501.3,524.4z M504.7,524.4
		c0,4.6,1.9,6.3,3.4,6.3s3.4-1.7,3.4-6.3c0-4.6-1.9-6.3-3.4-6.3S504.7,519.8,504.7,524.4z"/>
	<path d="M519.8,518.5h-2.5v-3h6v17.7h-3.4V518.5z"/>
	<path d="M535.2,518.5H527v-3h13.6L530,533.7l-2.9-1.3L535.2,518.5z"/>
</g>
<g class="st9">
	<path d="M586.7,515.5l4.7,11.9l4.7-11.9h3.8l-7.5,17.7h-2.1l-7.4-17.7H586.7z"/>
	<path d="M611.6,530c-0.3,0.8-1.6,3.6-5.6,3.6c-1.9,0-3.3-0.5-4.4-1.6c-1.3-1.2-1.8-2.7-1.8-4.5c0-2.3,0.9-3.7,1.7-4.5
		c1.4-1.3,2.9-1.6,4.3-1.6c2.3,0,3.7,0.9,4.5,1.9c1.2,1.5,1.4,3.3,1.4,4.5v0.3h-8.6c0,0.7,0.2,1.4,0.6,1.9c0.3,0.5,1.1,1.1,2.3,1.1
		c1.2,0,2.1-0.6,2.7-1.5L611.6,530z M608.7,526c-0.3-1.6-1.5-2.3-2.7-2.3s-2.4,0.8-2.7,2.3H608.7z"/>
	<path d="M614.2,521.7h3.2v1.5c0.6-0.8,1.7-1.9,3.5-1.9c1,0,2.5,0.3,3.4,1.4c0.8,1,0.9,2.1,0.9,3.2v7.2H622V527c0-0.6,0-1.6-0.6-2.3
		c-0.5-0.5-1.2-0.6-1.5-0.6c-0.8,0-1.5,0.3-2,1c-0.5,0.7-0.5,1.6-0.5,2.2v5.9h-3.2V521.7z"/>
	<path d="M631.6,521.7v6.5c0,0.6,0.1,1.4,0.7,2c0.4,0.3,1,0.6,1.6,0.6s1.2-0.2,1.6-0.6c0.6-0.6,0.7-1.4,0.7-2v-6.5h3.2v7
		c0,1-0.1,2.4-1.4,3.5c-1.1,0.9-2.8,1.3-4.2,1.3s-3.1-0.4-4.2-1.3c-1.3-1.1-1.4-2.5-1.4-3.5v-7H631.6z"/>
	<path d="M653.8,530c-0.3,0.8-1.6,3.6-5.6,3.6c-1.9,0-3.3-0.5-4.4-1.6c-1.3-1.2-1.8-2.7-1.8-4.5c0-2.3,0.9-3.7,1.7-4.5
		c1.4-1.3,2.9-1.6,4.3-1.6c2.3,0,3.7,0.9,4.5,1.9c1.2,1.5,1.4,3.3,1.4,4.5v0.3h-8.6c0,0.7,0.2,1.4,0.6,1.9c0.3,0.5,1.1,1.1,2.3,1.1
		c1.2,0,2.1-0.6,2.7-1.5L653.8,530z M650.8,526c-0.3-1.6-1.5-2.3-2.7-2.3s-2.4,0.8-2.7,2.3H650.8z"/>
	<path d="M658.2,521.4c1.2,0,2.1,0.9,2.1,2.1c0,1.2-0.9,2.1-2.1,2.1c-1.2,0-2.1-0.9-2.1-2.1C656.1,522.3,657,521.4,658.2,521.4z
		 M658.2,529.5c1.2,0,2.1,0.9,2.1,2.1s-0.9,2.1-2.1,2.1c-1.2,0-2.1-0.9-2.1-2.1S657,529.5,658.2,529.5z"/>
	<path d="M675.3,518.5v14.7h-3.4v-14.7h-4v-3h11.4v3H675.3z"/>
	<path d="M679.8,513.9h3.2v9.3c0.6-0.8,1.7-1.9,3.5-1.9c1,0,2.5,0.3,3.4,1.4c0.8,1,0.9,2.1,0.9,3.2v7.2h-3.2V527
		c0-0.6,0-1.6-0.6-2.3c-0.5-0.5-1.2-0.6-1.5-0.6c-0.8,0-1.5,0.3-2,1c-0.5,0.7-0.5,1.6-0.5,2.2v5.9h-3.2V513.9z"/>
	<path d="M704.9,530c-0.3,0.8-1.6,3.6-5.6,3.6c-1.9,0-3.3-0.5-4.4-1.6c-1.3-1.2-1.8-2.7-1.8-4.5c0-2.3,0.9-3.7,1.7-4.5
		c1.4-1.3,2.9-1.6,4.3-1.6c2.3,0,3.7,0.9,4.5,1.9c1.2,1.5,1.4,3.3,1.4,4.5v0.3h-8.6c0,0.7,0.2,1.4,0.6,1.9c0.3,0.5,1.1,1.1,2.3,1.1
		c1.2,0,2.1-0.6,2.7-1.5L704.9,530z M702,526c-0.3-1.6-1.5-2.3-2.7-2.3c-1.2,0-2.4,0.8-2.7,2.3H702z"/>
	<path d="M717.6,522.4h7.5v-6.8h3.4v17.7h-3.4v-7.9h-7.5v7.9h-3.4v-17.7h3.4V522.4z"/>
	<path d="M735.3,521.7v6.5c0,0.6,0.1,1.4,0.7,2c0.4,0.3,1,0.6,1.6,0.6c0.6,0,1.2-0.2,1.6-0.6c0.6-0.6,0.7-1.4,0.7-2v-6.5h3.2v7
		c0,1-0.1,2.4-1.4,3.5c-1.1,0.9-2.8,1.3-4.2,1.3c-1.4,0-3.1-0.4-4.2-1.3c-1.3-1.1-1.4-2.5-1.4-3.5v-7H735.3z"/>
	<path d="M749.5,523.2c1.1-1.6,2.8-1.9,3.7-1.9c3.4,0,5.6,2.6,5.6,6.1c0,3.5-2.3,6.1-5.7,6.1c-0.7,0-2.4-0.1-3.7-1.9v1.5h-3.2v-19.3
		h3.2V523.2z M749.2,527.5c0,1.8,1.3,3.3,3.2,3.3s3.2-1.4,3.2-3.3s-1.3-3.2-3.2-3.2S749.2,525.6,749.2,527.5z"/>
</g>
<path class="st1" d="M922.1,537.4H847c-3.5,0-6.4-2.9-6.4-6.4v-17c0-3.5,2.9-6.4,6.4-6.4h75.1c3.5,0,6.4,2.9,6.4,6.4v17
	C928.5,534.5,925.6,537.4,922.1,537.4z"/>
<g class="st9">
	<path class="st0" d="M860.5,528.2c0,0.6-0.2,1.1-0.6,1.5c-0.4,0.4-0.9,0.6-1.5,0.6h-10.9v-3h9.8v-3.9h-7.6c-0.6,0-1.1-0.2-1.5-0.6
		c-0.4-0.4-0.6-0.9-0.6-1.5v-3.9c0-0.6,0.2-1.1,0.6-1.5c0.4-0.4,0.9-0.6,1.5-0.6h10.9v3h-9.8v2.2h7.6c0.6,0,1.1,0.2,1.5,0.6
		c0.4,0.4,0.6,0.9,0.6,1.5V528.2z"/>
	<path class="st0" d="M872.3,530.3v-7h-6.5v7h-3.3v-15.2h3.3v5.2h6.5v-5.2h3.3v15.2H872.3z"/>
	<path class="st0" d="M889.6,530.3l-1.4-3.5h-6.1l-1.4,3.5H877l6.1-15.2h4.1l6.1,15.2H889.6z M885.2,519.2l-1.8,4.6h3.7L885.2,519.2
		z"/>
	<path class="st0" d="M904.6,530.3v-7H898v7h-3.3v-15.2h10.9c0.6,0,1.1,0.2,1.5,0.6c0.4,0.4,0.6,0.9,0.6,1.5v2.4
		c0,0.6-0.2,1.1-0.6,1.5c-0.4,0.4-0.9,0.6-1.5,0.6c0.6,0,1.1,0.2,1.5,0.6c0.4,0.4,0.6,0.9,0.6,1.5v6.3H904.6z M904.6,518.2H898v2.2
		h6.5V518.2z"/>
	<path class="st0" d="M912,530.3c-0.6,0-1.1-0.2-1.5-0.6c-0.4-0.4-0.6-0.9-0.6-1.5v-10.9c0-0.6,0.2-1.1,0.6-1.5
		c0.4-0.4,0.9-0.6,1.5-0.6h9.8v3h-8.7v2.2h8.7v3h-8.7v3.9h8.7v3H912z"/>
</g>
<polygon class="st23" points="1257,60.7 1275.1,70.2 1257,79.9 "/>
<polygon class="st1" points="1004.9,49.2 232.6,49.2 280.3,44.6 1115.9,44.6 1012.2,47 "/>
<line class="st2" x1="833.4" y1="7.9" x2="833.4" y2="38.6"/>
<path class="st1" d="M957.6,37.8H856.3c-3.5,0-6.2-2.9-6.2-6.2V14.1c0-3.5,2.9-6.2,6.2-6.2h101.3c3.5,0,6.2,2.9,6.2,6.2v17.4
	C963.8,34.9,961.2,37.8,957.6,37.8z"/>
<g class="st9">
	<path class="st0" d="M870,28.6c0,0.6-0.2,1.1-0.6,1.5s-0.9,0.6-1.5,0.6h-10.9v-3h9.8v-3.9h-7.6c-0.6,0-1.1-0.2-1.5-0.6
		c-0.4-0.4-0.6-0.9-0.6-1.5v-3.9c0-0.6,0.2-1.1,0.6-1.5c0.4-0.4,0.9-0.6,1.5-0.6H870v3h-9.8v2.2h7.6c0.6,0,1.1,0.2,1.5,0.6
		c0.4,0.4,0.6,0.9,0.6,1.5V28.6z"/>
	<path class="st0" d="M885,28.6c0,0.6-0.2,1.1-0.6,1.5c-0.4,0.4-0.9,0.6-1.5,0.6h-8.7c-0.6,0-1.1-0.2-1.5-0.6
		c-0.4-0.4-0.6-0.9-0.6-1.5v-13h3.3v12.2h6.5V15.5h3.3V28.6z"/>
	<path class="st0" d="M900.1,21.6c0,0.6-0.2,1.1-0.6,1.5c-0.4,0.4-0.9,0.6-1.5,0.6h-7.6v7H887V15.5h10.9c0.6,0,1.1,0.2,1.5,0.6
		c0.4,0.4,0.6,0.9,0.6,1.5V21.6z M896.8,18.6h-6.5v2.2h6.5V18.6z"/>
	<path class="st0" d="M914.4,21.6c0,0.6-0.2,1.1-0.6,1.5c-0.4,0.4-0.9,0.6-1.5,0.6h-7.6v7h-3.3V15.5h10.9c0.6,0,1.1,0.2,1.5,0.6
		c0.4,0.4,0.6,0.9,0.6,1.5V21.6z M911.1,18.6h-6.5v2.2h6.5V18.6z"/>
	<path class="st0" d="M928.6,28.6c0,0.6-0.2,1.1-0.6,1.5s-0.9,0.6-1.5,0.6h-8.7c-0.6,0-1.1-0.2-1.5-0.6c-0.4-0.4-0.6-0.9-0.6-1.5
		V17.7c0-0.6,0.2-1.1,0.6-1.5c0.4-0.4,0.9-0.6,1.5-0.6h8.7c0.6,0,1.1,0.2,1.5,0.6c0.4,0.4,0.6,0.9,0.6,1.5V28.6z M925.4,18.6h-6.5
		v9.1h6.5V18.6z"/>
	<path class="st0" d="M940.4,30.8v-7h-6.5v7h-3.3V15.5h10.9c0.6,0,1.1,0.2,1.5,0.6c0.4,0.4,0.6,0.9,0.6,1.5v2.4
		c0,0.6-0.2,1.1-0.6,1.5c-0.4,0.4-0.9,0.6-1.5,0.6c0.6,0,1.1,0.2,1.5,0.6c0.4,0.4,0.6,0.9,0.6,1.5v6.3H940.4z M940.4,18.6h-6.5v2.2
		h6.5V18.6z"/>
	<path class="st0" d="M953.5,18.6v12.2h-3.3V18.6h-5.1v-3h13v3H953.5z"/>
</g>
<g>
	<g>
		<g>
			<g>
				<path class="st0" d="M68,21c-10.4-10.4-27.2-10.4-37.5,0s-10.4,27.2,0,37.5s27.2,10.4,37.5,0C78.3,48.1,78.3,31.3,68,21z
					 M36.4,52.5c-7.1-7.1-7.1-18.8,0-25.8s18.8-7.1,25.8,0s7.1,18.8,0,25.8S43.4,59.8,36.4,52.5z"/>
				<path class="st0" d="M60.7,28.5c-6.2-6.2-16.3-6.2-22.7,0c-6.2,6.2-6.2,16.3,0,22.7s16.3,6.2,22.7,0
					C66.8,44.8,66.8,34.7,60.7,28.5z M60.7,48.6l-2.2-2.2L56,48.8l2.2,2.2c-2,2-5.3,2.6-5.3,2.6s-3.1,0.9-6,0.2l0.9-3.1l-3.5-0.9
					L43.7,53c-2.6-0.9-4.9-3.1-4.9-3.1s-2.4-2.2-3.1-4.9l2.9-0.9l-0.7-3.3l-3.1,0.9c-0.7-2.6,0.2-6,0.2-6s0.7-3.1,2.6-5.3l2.2,2.2
					l2.4-2.4L40.1,28c2-2,5.3-2.6,5.3-2.6s3.1-0.9,6-0.2l-0.9,3.1l3.3,0.9l0.9-2.9c2.6,0.9,4.9,3.1,4.9,3.1s2.4,2.2,3.1,4.9
					l-3.1,0.7l0.9,3.3l3.1-0.9c0.7,2.6-0.2,6-0.2,6S62.7,46.6,60.7,48.6z"/>
			</g>
		</g>
	</g>
	<g>
		<g>
			<g>
				<path class="st0" d="M126.9,21c-10.4-10.4-27.2-10.4-37.5,0s-10.4,27.2,0,37.5s27.2,10.4,37.5,0C137.3,48.1,137.3,31.3,126.9,21
					z M95.3,52.8c-7.1-7.1-7.1-18.8,0-25.8s18.8-7.1,25.8,0s7.1,18.8,0,25.8S102.6,59.8,95.3,52.8z"/>
				<path class="st0" d="M119.6,28.5c-6.2-6.2-16.3-6.2-22.7,0c-6.2,6.2-6.2,16.3,0,22.7c6.2,6.2,16.3,6.2,22.7,0
					C126,44.8,126,34.7,119.6,28.5z M119.8,48.6l-2.2-2.2l-2.4,2.4l2.2,2.2c-2,2-5.3,2.6-5.3,2.6s-3.1,0.9-6,0.2l0.9-3.1l-3.5-0.9
					l-0.7,3.1c-2.6-0.9-4.9-3.1-4.9-3.1s-2.4-2.2-3.1-4.9l2.9-0.9l-0.7-3.3L94,41.7c-0.7-2.6,0.2-6,0.2-6s0.7-3.1,2.6-5.3l2.2,2.2
					l2.4-2.4L99.3,28c2-2,5.3-2.6,5.3-2.6s3.1-0.9,6-0.2l-0.9,3.1l3.3,0.9l0.9-2.9c2.6,0.9,4.9,3.1,4.9,3.1s2.4,2.2,3.1,4.9
					l-3.1,0.7l0.9,3.3l3.1-0.9c0.7,2.6-0.2,6-0.2,6S121.8,46.6,119.8,48.6z"/>
			</g>
		</g>
	</g>
	<rect x="49.2" y="63.1" class="st0" width="59.2" height="3.1"/>
	<g class="st9">
		<path class="st0" d="M22.6,73.6v-1.4h3.3l0.6,1.4H22.6z M22.6,75.6v-1.4h4.2l0.6,1.4H22.6z M22.6,77.5V76h5l0.6,1.4H22.6z
			 M22.6,79.4V78h5.9l0.6,1.4H22.6z M26.2,81.3l-0.3-0.7v0.7h-3.3v-1.4h6.7l0.7,1.4H26.2z M22.6,83.2v-1.4h3.3v1.4H22.6z M22.6,85.2
			v-1.4h3.3v1.4H22.6z M22.6,87.1v-1.4h3.3v1.4H22.6z M22.6,89v-1.4h3.3V89H22.6z M27,83.2l-0.6-1.4h3.7l0.6,1.4H27z M34,85.2h-6.1
			l-0.6-1.4h7.3L34,85.2z M33.1,87.1h-4.4l-0.6-1.4h5.6L33.1,87.1z M32.2,89h-2.6L29,87.5h3.9L32.2,89z M34.8,83.2h-3.7l0.6-1.4h3.7
			L34.8,83.2z M36,81.3v-0.7l-0.3,0.7h-3.7l0.7-1.4h6.7v1.4H36z M32.8,79.4l0.6-1.4h5.9v1.4H32.8z M33.6,77.5l0.6-1.4h5v1.4H33.6z
			 M34.5,75.6l0.6-1.4h4.2v1.4H34.5z M35.3,73.6l0.6-1.4h3.3v1.4H35.3z M36,83.2v-1.4h3.3v1.4H36z M36,85.2v-1.4h3.3v1.4H36z
			 M36,87.1v-1.4h3.3v1.4H36z M36,89v-1.4h3.3V89H36z"/>
		<path class="st0" d="M41.1,73.6v-1.4h3.3v1.4H41.1z M41.1,75.6v-1.4h3.3v1.4H41.1z M41.1,77.5V76h3.3v1.4H41.1z M41.1,79.4V78h3.3
			v1.4H41.1z M41.1,81.3v-1.4h3.3v1.4H41.1z M41.1,83.2v-1.4h3.3v1.4H41.1z M41.1,85.2v-1.4h3.3v1.4H41.1z M41.1,87.1v-1.4h3.3v1.4
			H41.1z M41.1,89v-1.4h3.3V89H41.1z"/>
		<path class="st0" d="M46.8,73.6l-1-1.4H50l1,1.4H46.8z M50,89h-4.2l1-1.4H51L50,89z M48.1,75.6l-1-1.4h4.2l1,1.4H48.1z M51.3,87.1
			h-4.2l1-1.4h4.2L51.3,87.1z M57.7,77.5h-8.4L48.4,76h4.2l0.9,1.4l0.9-1.4h4.2L57.7,77.5z M54.5,85.2l-0.9-1.4l-0.9,1.4h-4.2
			l0.9-1.4h8.4l0.9,1.4H54.5z M56.4,79.4h-5.8l-1-1.4h7.7L56.4,79.4z M49.7,83.2l1-1.4h5.8l1,1.4H49.7z M51,81.3l0.5-0.7L51,79.9
			h5.1l-0.5,0.7l0.5,0.7H51z M59,75.6h-4.2l1-1.4H60L59,75.6z M55.8,87.1l-1-1.4H59l1,1.4H55.8z M60.3,73.6h-4.2l1-1.4h4.2
			L60.3,73.6z M57.1,89l-1-1.4h4.2l1,1.4H57.1z"/>
		<path class="st0" d="M62,73.6v-1.4h13.2v1.4H62z M62,75.6v-1.4h13.2v1.4H62z M67.2,77.5V76h3.3v1.4H67.2z M67.2,79.4V78h3.3v1.4
			H67.2z M67.2,81.3v-1.4h3.3v1.4H67.2z M67.2,83.2v-1.4h3.3v1.4H67.2z M67.2,85.2v-1.4h3.3v1.4H67.2z M67.2,87.1v-1.4h3.3v1.4H67.2
			z M67.2,89v-1.4h3.3V89H67.2z"/>
		<path class="st0" d="M79.6,89h-3.7l0.5-1.4h3.7L79.6,89z M80.3,87.1h-3.7l0.5-1.4h3.7L80.3,87.1z M77.3,85.2l0.5-1.4h12.6l0.5,1.4
			H77.3z M78,83.2l0.5-1.4h11.2l0.5,1.4H78z M82.4,81.3h-3.7l0.5-1.4h3.7L82.4,81.3z M83.1,79.4h-3.7l0.5-1.4h3.7L83.1,79.4z
			 M84.4,77.5l-0.3-0.8l-0.3,0.8h-3.7l0.5-1.4h7l0.5,1.4H84.4z M80.8,75.6l0.5-1.4h5.6l0.5,1.4H80.8z M81.5,73.6l0.5-1.4h4.2
			l0.5,1.4H81.5z M85.1,79.4L84.6,78h3.7l0.5,1.4H85.1z M85.8,81.3l-0.5-1.4H89l0.5,1.4H85.8z M87.9,87.1l-0.5-1.4h3.7l0.5,1.4H87.9
			z M88.6,89l-0.5-1.4h3.7l0.5,1.4H88.6z"/>
		<path class="st0" d="M93.6,73.6v-1.4h11c1,0,1.6,0.5,2,1.4H93.6z M93.6,75.6v-1.4h13.1c0,0,0,0.1,0,0.1s0,0.1,0,0.1
			c0,0,0,0.1,0,0.2v1H93.6z M93.6,77.5V76h3.3v1.4H93.6z M106.8,78.9c0,0.1,0,0.2,0,0.2c0,0,0,0.1,0,0.1s0,0.1,0,0.1H93.6V78h13.2
			V78.9z M106.7,79.9c-0.4,1-1.1,1.4-2,1.4h-11v-1.4H106.7z M93.6,83.2v-1.4h3.3v1.4H93.6z M93.6,85.2v-1.4h3.3v1.4H93.6z
			 M93.6,87.1v-1.4h3.3v1.4H93.6z M93.6,89v-1.4h3.3V89H93.6z M103.5,77.5V76h3.3v1.4H103.5z"/>
		<path class="st0" d="M107.8,75.6v-1c0-0.1,0-0.2,0-0.2c0,0,0-0.1,0-0.1c0,0,0-0.1,0-0.1h12v1.4H107.8z M107.8,77.5V76h3.3v1.4
			H107.8z M107.8,79.4V78h12.1v1.4H107.8z M107.8,81.3v-1.4h12.1v1.4H107.8z M107.8,83.2v-1.4h3.3v1.4H107.8z M107.8,85.2v-1.4h3.3
			v1.4H107.8z M107.9,87.1c0,0,0-0.1,0-0.1c0,0,0-0.1,0-0.1c0,0,0-0.1,0-0.2v-1h12.1v1.4H107.9z M108,73.6c0.4-1,1-1.4,2-1.4h9.9
			v1.4H108z M110,89c-1,0-1.7-0.5-2-1.4h11.9V89H110z"/>
		<path class="st0" d="M121.6,73.6v-1.4h11c1,0,1.6,0.5,2,1.4H121.6z M121.6,75.6v-1.4h13.1c0,0,0,0.1,0,0.1s0,0.1,0,0.1
			c0,0,0,0.1,0,0.2v1H121.6z M121.6,77.5V76h3.3v1.4H121.6z M121.6,79.4V78h3.3v1.4H121.6z M121.6,81.3v-1.4h3.3v1.4H121.6z
			 M121.6,83.2v-1.4h3.3v1.4H121.6z M121.6,85.2v-1.4h3.3v1.4H121.6z M134.8,86.6c0,0.1,0,0.2,0,0.2c0,0,0,0.1,0,0.1
			c0,0,0,0.1,0,0.1h-13.1v-1.4h13.2V86.6z M134.6,87.5c-0.4,1-1.1,1.4-2,1.4h-11v-1.4H134.6z M131.5,77.5V76h3.3v1.4H131.5z
			 M131.5,79.4V78h3.3v1.4H131.5z M131.5,81.3v-1.4h3.3v1.4H131.5z M131.5,83.2v-1.4h3.3v1.4H131.5z M131.5,85.2v-1.4h3.3v1.4H131.5
			z"/>
	</g>
</g>
<rect x="13.4" y="137.5" class="st1" width="149.7" height="21.9"/>
<rect x="13.4" y="161.2" class="st1" width="149.7" height="21.9"/>
<rect x="13.4" y="183.2" class="st1" width="149.7" height="21.9"/>
<rect x="13.4" y="228.3" class="st1" width="149.7" height="21.9"/>
<g class="st9">
	<path class="st0" d="M49.7,152.9v-3.3h-3.1v3.3h-1.5v-7.2h1.5v2.5h3.1v-2.5h1.5v7.2H49.7z"/>
	<path class="st0" d="M58.3,151.8c0,0.3-0.1,0.5-0.3,0.7c-0.2,0.2-0.4,0.3-0.7,0.3h-4.1c-0.3,0-0.5-0.1-0.7-0.3
		c-0.2-0.2-0.3-0.4-0.3-0.7v-5.1c0-0.3,0.1-0.5,0.3-0.7c0.2-0.2,0.4-0.3,0.7-0.3h4.1c0.3,0,0.5,0.1,0.7,0.3c0.2,0.2,0.3,0.4,0.3,0.7
		V151.8z M56.8,147.1h-3.1v4.3h3.1V147.1z"/>
	<path class="st0" d="M65.6,152.9v-3.6l-1.7,3.6h-1.2l-1.7-3.6v3.6h-1.5v-7.2h1.5l2.3,4.9l2.4-4.9h1.5v7.2H65.6z"/>
	<path class="st0" d="M69.1,152.9c-0.3,0-0.5-0.1-0.7-0.3c-0.2-0.2-0.3-0.4-0.3-0.7v-5.1c0-0.3,0.1-0.5,0.3-0.7
		c0.2-0.2,0.4-0.3,0.7-0.3h4.6v1.4h-4.1v1h4.1v1.4h-4.1v1.9h4.1v1.4H69.1z"/>
</g>
<g class="st9">
	<path class="st0" d="M51.3,220.4v-3.6l-1.7,3.6h-1.2l-1.7-3.6v3.6h-1.5v-7.2h1.5l2.3,4.9l2.4-4.9h1.5v7.2H51.3z"/>
	<path class="st0" d="M57.9,217.1v3.3h-1.5v-3.3l-2.8-3.9h2l1.6,2.3l1.6-2.3h2L57.9,217.1z"/>
	<path class="st0" d="M72.2,219.4c0,0.3-0.1,0.5-0.3,0.7c-0.2,0.2-0.4,0.3-0.7,0.3H66V219h4.6v-1.9H67c-0.3,0-0.5-0.1-0.7-0.3
		c-0.2-0.2-0.3-0.4-0.3-0.7v-1.9c0-0.3,0.1-0.5,0.3-0.7c0.2-0.2,0.4-0.3,0.7-0.3h5.1v1.4h-4.6v1h3.6c0.3,0,0.5,0.1,0.7,0.3
		c0.2,0.2,0.3,0.4,0.3,0.7V219.4z"/>
	<path class="st0" d="M76.8,214.6v5.8h-1.5v-5.8h-2.4v-1.4H79v1.4H76.8z"/>
	<path class="st0" d="M84.3,220.4v-3.3h-3.1v3.3h-1.5v-7.2h5.1c0.3,0,0.5,0.1,0.7,0.3c0.2,0.2,0.3,0.4,0.3,0.7v1.1
		c0,0.3-0.1,0.5-0.3,0.7c-0.2,0.2-0.4,0.3-0.7,0.3c0.3,0,0.5,0.1,0.7,0.3c0.2,0.2,0.3,0.4,0.3,0.7v3H84.3z M84.3,214.6h-3.1v1h3.1
		V214.6z"/>
	<path class="st0" d="M87.8,220.4c-0.3,0-0.5-0.1-0.7-0.3c-0.2-0.2-0.3-0.4-0.3-0.7v-5.1c0-0.3,0.1-0.5,0.3-0.7
		c0.2-0.2,0.4-0.3,0.7-0.3h4.6v1.4h-4.1v1h4.1v1.4h-4.1v1.9h4.1v1.4H87.8z"/>
	<path class="st0" d="M98.9,220.4l-0.7-1.6h-2.9l-0.7,1.6h-1.7l2.9-7.2h2l2.9,7.2H98.9z M96.8,215.1l-0.9,2.2h1.7L96.8,215.1z"/>
	<path class="st0" d="M107.6,220.4v-3.6l-1.7,3.6h-1.2l-1.7-3.6v3.6h-1.5v-7.2h1.5l2.3,4.9l2.4-4.9h1.5v7.2H107.6z"/>
	<path class="st0" d="M116.2,219.4c0,0.3-0.1,0.5-0.3,0.7c-0.2,0.2-0.4,0.3-0.7,0.3h-5.1V219h4.6v-1.9h-3.6c-0.3,0-0.5-0.1-0.7-0.3
		c-0.2-0.2-0.3-0.4-0.3-0.7v-1.9c0-0.3,0.1-0.5,0.3-0.7c0.2-0.2,0.4-0.3,0.7-0.3h5.1v1.4h-4.6v1h3.6c0.3,0,0.5,0.1,0.7,0.3
		c0.2,0.2,0.3,0.4,0.3,0.7V219.4z"/>
</g>
<g class="st9">
	<path class="st0" d="M51.2,174.6c0,0.3-0.1,0.5-0.3,0.7c-0.2,0.2-0.4,0.3-0.7,0.3h-5.1v-1.4h4.6v-1.9h-3.6c-0.3,0-0.5-0.1-0.7-0.3
		c-0.2-0.2-0.3-0.4-0.3-0.7v-1.9c0-0.3,0.1-0.5,0.3-0.7c0.2-0.2,0.4-0.3,0.7-0.3h5.1v1.4h-4.6v1h3.6c0.3,0,0.5,0.1,0.7,0.3
		c0.2,0.2,0.3,0.4,0.3,0.7V174.6z"/>
	<path class="st0" d="M58.4,174.6c0,0.3-0.1,0.5-0.3,0.7c-0.2,0.2-0.4,0.3-0.7,0.3h-4.1c-0.3,0-0.5-0.1-0.7-0.3
		c-0.2-0.2-0.3-0.4-0.3-0.7v-6.2h1.5v5.8h3.1v-5.8h1.5V174.6z"/>
	<path class="st0" d="M65.5,174.6c0,0.3-0.1,0.5-0.3,0.7c-0.2,0.2-0.4,0.3-0.7,0.3h-5.1v-7.2h5.1c0.3,0,0.5,0.1,0.7,0.3
		c0.2,0.2,0.3,0.4,0.3,0.7v1.1c0,0.3-0.1,0.5-0.3,0.7c-0.2,0.2-0.4,0.3-0.7,0.3c0.3,0,0.5,0.1,0.7,0.3c0.2,0.2,0.3,0.4,0.3,0.7
		V174.6z M63.9,169.9h-3.1v1h3.1V169.9z M63.9,172.3h-3.1v1.9h3.1V172.3z"/>
	<path class="st0" d="M72.6,174.6c0,0.3-0.1,0.5-0.3,0.7c-0.2,0.2-0.4,0.3-0.7,0.3h-5.1v-1.4H71v-1.9h-3.6c-0.3,0-0.5-0.1-0.7-0.3
		c-0.2-0.2-0.3-0.4-0.3-0.7v-1.9c0-0.3,0.1-0.5,0.3-0.7c0.2-0.2,0.4-0.3,0.7-0.3h5.1v1.4h-4.6v1h3.6c0.3,0,0.5,0.1,0.7,0.3
		c0.2,0.2,0.3,0.4,0.3,0.7V174.6z"/>
	<path class="st0" d="M74.5,175.6c-0.3,0-0.5-0.1-0.7-0.3c-0.2-0.2-0.3-0.4-0.3-0.7v-5.1c0-0.3,0.1-0.5,0.3-0.7
		c0.2-0.2,0.4-0.3,0.7-0.3h4.6v1.4h-4.1v4.3h4.1v1.4H74.5z"/>
	<path class="st0" d="M84.5,175.6v-3.3h-3.1v3.3h-1.5v-7.2H85c0.3,0,0.5,0.1,0.7,0.3c0.2,0.2,0.3,0.4,0.3,0.7v1.1
		c0,0.3-0.1,0.5-0.3,0.7c-0.2,0.2-0.4,0.3-0.7,0.3c0.3,0,0.5,0.1,0.7,0.3c0.2,0.2,0.3,0.4,0.3,0.7v3H84.5z M84.5,169.9h-3.1v1h3.1
		V169.9z"/>
	<path class="st0" d="M86.9,175.6v-7.2h1.5v7.2H86.9z"/>
	<path class="st0" d="M95.6,171.3c0,0.3-0.1,0.5-0.3,0.7c-0.2,0.2-0.4,0.3-0.7,0.3H91v3.3h-1.5v-7.2h5.1c0.3,0,0.5,0.1,0.7,0.3
		c0.2,0.2,0.3,0.4,0.3,0.7V171.3z M94.1,169.9H91v1h3.1V169.9z"/>
	<path class="st0" d="M99.9,169.9v5.8h-1.5v-5.8h-2.4v-1.4h6.2v1.4H99.9z"/>
	<path class="st0" d="M102.8,175.6v-7.2h1.5v7.2H102.8z"/>
	<path class="st0" d="M111.5,174.6c0,0.3-0.1,0.5-0.3,0.7c-0.2,0.2-0.4,0.3-0.7,0.3h-4.1c-0.3,0-0.5-0.1-0.7-0.3
		c-0.2-0.2-0.3-0.4-0.3-0.7v-5.1c0-0.3,0.1-0.5,0.3-0.7c0.2-0.2,0.4-0.3,0.7-0.3h4.1c0.3,0,0.5,0.1,0.7,0.3c0.2,0.2,0.3,0.4,0.3,0.7
		V174.6z M110,169.9h-3.1v4.3h3.1V169.9z"/>
	<path class="st0" d="M117.1,175.6l-3.1-4.3v4.3h-1.5v-7.2h1.5l3.1,4.3v-4.3h1.5v7.2H117.1z"/>
	<path class="st0" d="M125.7,174.6c0,0.3-0.1,0.5-0.3,0.7c-0.2,0.2-0.4,0.3-0.7,0.3h-5.1v-1.4h4.6v-1.9h-3.6c-0.3,0-0.5-0.1-0.7-0.3
		c-0.2-0.2-0.3-0.4-0.3-0.7v-1.9c0-0.3,0.1-0.5,0.3-0.7c0.2-0.2,0.4-0.3,0.7-0.3h5.1v1.4h-4.6v1h3.6c0.3,0,0.5,0.1,0.7,0.3
		c0.2,0.2,0.3,0.4,0.3,0.7V174.6z"/>
</g>
<g class="st9">
	<path class="st0" d="M46.1,242.7c-0.3,0-0.5-0.1-0.7-0.3c-0.2-0.2-0.3-0.4-0.3-0.7v-5.1c0-0.3,0.1-0.5,0.3-0.7
		c0.2-0.2,0.4-0.3,0.7-0.3h5.1v1.4h-4.6v4.3h3.1v-1.9h-2.1v-1.4h3.6v4.7H46.1z"/>
	<path class="st0" d="M53.2,242.7c-0.3,0-0.5-0.1-0.7-0.3c-0.2-0.2-0.3-0.4-0.3-0.7v-5.1c0-0.3,0.1-0.5,0.3-0.7
		c0.2-0.2,0.4-0.3,0.7-0.3h4.6v1.4h-4.1v1h4.1v1.4h-4.1v1.9h4.1v1.4H53.2z"/>
	<path class="st0" d="M63.1,242.7l-3.1-4.3v4.3h-1.5v-7.2H60l3.1,4.3v-4.3h1.5v7.2H63.1z"/>
	<path class="st0" d="M70.3,242.7v-3.3h-3.1v3.3h-1.5v-7.2h5.1c0.3,0,0.5,0.1,0.7,0.3c0.2,0.2,0.3,0.4,0.3,0.7v1.1
		c0,0.3-0.1,0.5-0.3,0.7c-0.2,0.2-0.4,0.3-0.7,0.3c0.3,0,0.5,0.1,0.7,0.3c0.2,0.2,0.3,0.4,0.3,0.7v3H70.3z M70.3,236.9h-3.1v1h3.1
		V236.9z"/>
	<path class="st0" d="M73.8,242.7c-0.3,0-0.5-0.1-0.7-0.3c-0.2-0.2-0.3-0.4-0.3-0.7v-5.1c0-0.3,0.1-0.5,0.3-0.7
		c0.2-0.2,0.4-0.3,0.7-0.3h4.6v1.4h-4.1v1h4.1v1.4h-4.1v1.9h4.1v1.4H73.8z"/>
	<path class="st0" d="M85.3,241.6c0,0.3-0.1,0.5-0.3,0.7c-0.2,0.2-0.4,0.3-0.7,0.3h-5.1v-1.4h4.6v-1.9h-3.6c-0.3,0-0.5-0.1-0.7-0.3
		c-0.2-0.2-0.3-0.4-0.3-0.7v-1.9c0-0.3,0.1-0.5,0.3-0.7c0.2-0.2,0.4-0.3,0.7-0.3h5.1v1.4h-4.6v1h3.6c0.3,0,0.5,0.1,0.7,0.3
		c0.2,0.2,0.3,0.4,0.3,0.7V241.6z"/>
</g>
<g>
	<circle class="st0" cx="29.5" cy="172" r="5.5"/>
	<circle class="st1" cx="29.5" cy="172" r="4.4"/>
	<polygon class="st0" points="29.5,173.1 27.6,174.2 28.2,172.2 26.4,170.9 28.7,170.9 29.5,168.7 30.2,170.9 32.4,170.9 
		30.6,172.2 31.3,174.2 	"/>
</g>
<g class="st9">
	<path class="st0" d="M48.8,192v5.8h-1.5V192h-2.4v-1.4H51v1.4H48.8z"/>
	<path class="st0" d="M56.3,197.8v-3.3h-3.1v3.3h-1.5v-7.2h5.1c0.3,0,0.5,0.1,0.7,0.3c0.2,0.2,0.3,0.4,0.3,0.7v1.1
		c0,0.3-0.1,0.5-0.3,0.7c-0.2,0.2-0.4,0.3-0.7,0.3c0.3,0,0.5,0.1,0.7,0.3c0.2,0.2,0.3,0.4,0.3,0.7v3H56.3z M56.3,192h-3.1v1h3.1V192
		z"/>
	<path class="st0" d="M59.8,197.8c-0.3,0-0.5-0.1-0.7-0.3c-0.2-0.2-0.3-0.4-0.3-0.7v-5.1c0-0.3,0.1-0.5,0.3-0.7
		c0.2-0.2,0.4-0.3,0.7-0.3h4.6v1.4h-4.1v1h4.1v1.4h-4.1v1.9h4.1v1.4H59.8z"/>
	<path class="st0" d="M69.8,197.8l-3.1-4.3v4.3h-1.5v-7.2h1.5l3.1,4.3v-4.3h1.5v7.2H69.8z"/>
	<path class="st0" d="M78.4,196.7c0,0.3-0.1,0.5-0.3,0.7c-0.2,0.2-0.4,0.3-0.7,0.3h-5.1v-7.2h5.1c0.3,0,0.5,0.1,0.7,0.3
		c0.2,0.2,0.3,0.4,0.3,0.7V196.7z M76.9,192h-3.1v4.3h3.1V192z"/>
	<path class="st0" d="M79.4,197.8v-7.2h1.5v7.2H79.4z"/>
	<path class="st0" d="M86.5,197.8l-3.1-4.3v4.3h-1.5v-7.2h1.5l3.1,4.3v-4.3h1.5v7.2H86.5z"/>
	<path class="st0" d="M90,197.8c-0.3,0-0.5-0.1-0.7-0.3c-0.2-0.2-0.3-0.4-0.3-0.7v-5.1c0-0.3,0.1-0.5,0.3-0.7
		c0.2-0.2,0.4-0.3,0.7-0.3h5.1v1.4h-4.6v4.3h3.1v-1.9h-2.1V193h3.6v4.7H90z"/>
</g>
<g>
	<path class="st0" d="M26.7,189.9L26.7,189.9c-0.4,0-0.7,0.2-0.7,0.4v7.5c0,0.2,0.2,0.4,0.4,0.4l0,0c0.2,0,0.4-0.2,0.4-0.4v-7.5
		C27.3,190.1,26.9,189.9,26.7,189.9z"/>
	<path class="st0" d="M28,192.1L28,192.1c-0.2,0-0.4,0.2-0.4,0.4v3.3c0,0.2,0.2,0.4,0.4,0.4l0,0c0.2,0,0.4-0.2,0.4-0.4v-3.3
		C28.4,192.3,28.2,192.1,28,192.1z"/>
	<path class="st0" d="M30.6,192.1L30.6,192.1c-0.2,0-0.4,0.2-0.4,0.4v3.3c0,0.2,0.2,0.4,0.4,0.4l0,0c0.2,0,0.4-0.2,0.4-0.4v-3.3
		C31.1,192.3,30.9,192.1,30.6,192.1z"/>
	<path class="st0" d="M25.3,191.8L25.3,191.8c-0.2,0-0.4,0.2-0.4,0.4v3.5c0,0.2,0.2,0.4,0.4,0.4l0,0c0.2,0,0.4-0.2,0.4-0.4v-3.5
		C25.8,192.1,25.6,191.8,25.3,191.8z"/>
	<path class="st0" d="M33.3,191.8L33.3,191.8c-0.2,0-0.4,0.2-0.4,0.4v3.5c0,0.2,0.2,0.4,0.4,0.4l0,0c0.2,0,0.4-0.2,0.4-0.4v-3.5
		C33.7,192.1,33.5,191.8,33.3,191.8z"/>
	<path class="st0" d="M32,189.9L32,189.9c-0.4,0-0.7,0.2-0.7,0.4v7.5c0,0.2,0.2,0.4,0.4,0.4l0,0c0.2,0,0.4-0.2,0.4-0.4v-7.5
		C32.6,190.1,32.4,189.9,32,189.9z"/>
	<path class="st0" d="M29.3,193.2L29.3,193.2c-0.2,0-0.4,0.2-0.4,0.4v1.1c0,0.2,0.2,0.4,0.4,0.4l0,0c0.2,0,0.4-0.2,0.4-0.4v-1.1
		C29.8,193.4,29.5,193.2,29.3,193.2z"/>
	<path class="st0" d="M24,193.4L24,193.4c-0.2,0-0.2,0-0.2,0.2v1.1c0,0.2,0,0.2,0.2,0.2l0,0c0.2,0,0.2,0,0.2-0.2v-1.1
		C24.2,193.4,24.2,193.4,24,193.4z"/>
	<path class="st0" d="M34.8,193.4L34.8,193.4c-0.2,0-0.2,0-0.2,0.2v1.1c0,0.2,0,0.2,0.2,0.2l0,0c0.2,0,0.2,0,0.2-0.2v-1.1
		C35.1,193.4,34.8,193.4,34.8,193.4z"/>
</g>
<path class="st0" d="M35.3,149l-5.7-5.5c-0.2-0.2-0.4-0.2-0.4,0l-2.2,2v-0.2c0-0.2,0-0.2-0.2-0.2h-1.5c-0.2,0-0.2,0-0.2,0.2v2.2
	l-1.8,1.5c-0.2,0.2,0,0.4,0.2,0.4h1.5v4.4c0,0.2,0.2,0.4,0.4,0.4h2.4c0.2,0,0.2-0.2,0.2-0.2v-2.4c0-0.2,0-0.2,0.2-0.2h0.9H30
	c0.2,0,0.2,0,0.2,0.2v2.4c0,0.2,0.2,0.2,0.2,0.2h2.4c0.2,0,0.4-0.2,0.4-0.4v-4.4h1.5C35.3,149.5,35.5,149.2,35.3,149z"/>
<path class="st0" d="M26.7,242.2c0-0.2,0-0.2,0-0.4c0-2.4,0-4.9,0-7.3c0-0.2,0-0.4,0.2-0.4c2.4-0.4,4.6-0.9,7.1-1.3
	c0.2,0,0.4,0,0.9-0.2c0,0.4,0,0.9,0,1.3c0,1.5,0,3.3,0,4.9c0,1.1,0,2.2,0,3.3c0,0.7-0.2,1.1-0.7,1.3c-0.7,0.7-1.5,0.7-2.4,0.4
	c-0.7-0.2-1.1-0.7-1.1-1.3c-0.2-0.7,0.2-1.3,0.7-1.5c0.7-0.4,1.5-0.7,2.2-0.4c0,0,0,0,0.2,0c0-1.8,0-3.3,0-5.1
	c-0.4,0-0.7,0.2-1.1,0.2c-1.5,0.2-3.3,0.7-4.9,0.9c-0.2,0-0.2,0.2-0.2,0.2c0,2,0,4.2,0,6.2c0,1.3-0.9,2.2-2.4,2.2
	c-0.7,0-1.3-0.4-1.8-1.1c-0.2-0.7,0-1.5,0.7-2c0.7-0.4,1.5-0.7,2.2-0.4C26.4,242.2,26.4,242.2,26.7,242.2z"/>
<g>
	<g>
		<path class="st0" d="M31.5,213c0,0.7,0,1.3,0,2c0,0.9-0.7,1.8-1.5,2c-0.9,0.2-1.8,0-2.4-0.9c-0.2-0.4-0.4-0.7-0.4-1.1
			c0-1.5,0-2.9,0-4.4c0-0.9,0.7-1.8,1.5-2c0.9-0.2,2,0,2.4,0.9c0.2,0.4,0.4,0.7,0.4,1.1C31.5,211.7,31.5,212.4,31.5,213z"/>
		<path class="st0" d="M29.5,221.9c-0.7,0-1.1,0-1.8,0c-0.2,0-0.4-0.2-0.4-0.4s0.2-0.4,0.4-0.4c0.4,0,0.9,0,1.1,0l0,0
			c0-0.7,0-1.5,0-2.2l0,0c-1.5-0.2-2.9-1.3-3.1-2.9c0-0.2,0-0.7,0-0.9s0.2-0.4,0.4-0.4c0.2,0,0.4,0.2,0.4,0.4c0,0.4,0,0.7,0.2,1.1
			c0.4,1.3,1.8,2,3.1,1.8c1.5-0.2,2.4-1.3,2.6-2.9c0-0.2,0.2-0.4,0.4-0.4c0.2,0,0.4,0.2,0.4,0.4c0,1.8-1.3,3.3-3.1,3.8
			c-0.4,0-0.4,0-0.4,0.4c0,0.7,0,1.3,0,2c0,0,0,0.2,0.2,0.2c0.4,0,0.9,0,1.1,0c0.2,0,0.4,0.2,0.4,0.4c0,0.2-0.2,0.4-0.4,0.4
			C30.6,221.9,30,221.9,29.5,221.9z"/>
	</g>
</g>
<line class="st13" x1="22.5" y1="76.6" x2="22.5" y2="252.8"/>
</svg>
