<?xml version="1.0" encoding="utf-8"?>
<!-- Generator: Adobe Illustrator 21.1.0, SVG Export Plug-In . SVG Version: 6.00 Build 0)  -->
<svg version="1.1" id="Layer_1" xmlns="http://www.w3.org/2000/svg" xmlns:xlink="http://www.w3.org/1999/xlink" x="0px" y="0px"
	 viewBox="0 0 442.2 67.9" style="enable-background:new 0 0 442.2 67.9;" xml:space="preserve">
<style type="text/css">
	.st0{fill:#FFFFFF;}
	.st1{enable-background:new    ;}
	.st2{fill:#02C9CE;}
</style>
<rect class="st0" width="442.2" height="67.9"/>
<g class="st1">
	<path class="st2" d="M95,47.5V36.3l-5.4,11.2h-3.8l-5.4-11.2v11.2h-4.8V25.1h4.8l7.3,15.2L95,25.1h4.8v22.4H95z"/>
	<path class="st2" d="M115.4,37.2v10.2h-4.8V37.2l-8.8-12.1h6.1l5.1,7l5.1-7h6.1L115.4,37.2z"/>
	<path class="st2" d="M159.7,44.3c0,0.9-0.3,1.7-0.9,2.3c-0.6,0.6-1.4,0.9-2.3,0.9h-16V43h14.4v-5.8h-11.2c-0.9,0-1.7-0.3-2.3-0.9
		s-0.9-1.4-0.9-2.3v-5.8c0-0.9,0.3-1.7,0.9-2.3s1.4-0.9,2.3-0.9h16v4.5h-14.4v3.2h11.2c0.9,0,1.7,0.3,2.3,0.9
		c0.6,0.6,0.9,1.4,0.9,2.3V44.3z"/>
	<path class="st2" d="M174.1,29.6v17.9h-4.8V29.6h-7.5v-4.5H181v4.5H174.1z"/>
	<path class="st2" d="M197.5,47.5V37.2H188v10.2h-4.8V25.1h16c0.9,0,1.7,0.3,2.3,0.9c0.6,0.6,0.9,1.4,0.9,2.3v3.5
		c0,0.9-0.3,1.7-0.9,2.3c-0.6,0.6-1.4,0.9-2.3,0.9c0.9,0,1.7,0.3,2.3,0.9c0.6,0.6,0.9,1.4,0.9,2.3v9.3H197.5z M197.5,29.6H188v3.2
		h9.6V29.6z"/>
	<path class="st2" d="M208.4,47.5c-0.9,0-1.7-0.3-2.3-0.9c-0.6-0.6-0.9-1.4-0.9-2.3v-16c0-0.9,0.3-1.7,0.9-2.3
		c0.6-0.6,1.4-0.9,2.3-0.9h14.4v4.5H210v3.2h12.8v4.5H210V43h12.8v4.5H208.4z"/>
	<path class="st2" d="M242.6,47.5l-2-5.1h-9l-2,5.1h-5.4l8.9-22.4h6.1l8.9,22.4H242.6z M236.1,31.1l-2.7,6.8h5.4L236.1,31.1z"/>
	<path class="st2" d="M269.7,47.5V36.3l-5.4,11.2h-3.8L255,36.3v11.2h-4.8V25.1h4.8l7.3,15.2l7.4-15.2h4.8v22.4H269.7z"/>
	<path class="st2" d="M296.6,44.3c0,0.9-0.3,1.7-0.9,2.3s-1.4,0.9-2.3,0.9h-16V43h14.4v-5.8h-11.2c-0.9,0-1.7-0.3-2.3-0.9
		s-0.9-1.4-0.9-2.3v-5.8c0-0.9,0.3-1.7,0.9-2.3s1.4-0.9,2.3-0.9h16v4.5h-14.4v3.2h11.2c0.9,0,1.7,0.3,2.3,0.9
		c0.6,0.6,0.9,1.4,0.9,2.3V44.3z"/>
</g>
<g>
	<path class="st2" d="M33.6,24.7c0,2.1,0,4.1,0,6.2c0,2.7-2.1,5.5-4.8,6.2c-2.7,0.7-5.5,0-7.5-2.7c-0.7-1.4-1.4-2.1-1.4-3.4
		c0-4.8,0-8.9,0-13.7c0-2.7,2.1-5.5,4.8-6.2c2.7-0.7,6.2,0,7.5,2.7c0.7,1.4,1.4,2.1,1.4,3.4C33.6,20.5,33.6,22.6,33.6,24.7z"/>
	<path class="st2" d="M26.7,52.1c-2.1,0-3.4,0-5.5,0c-0.7,0-1.4-0.7-1.4-1.4c0-0.7,0.7-1.4,1.4-1.4c1.4,0,2.7,0,3.4,0l0,0
		c0-2.1,0-4.8,0-6.9l0,0c-4.8-0.7-8.9-4.1-9.6-8.9c0-0.7,0-2.1,0-2.7c0-0.7,0.7-1.4,1.4-1.4c0.7,0,1.4,0.7,1.4,1.4
		c0,1.4,0,2.1,0.7,3.4c1.4,4.1,5.5,6.2,9.6,5.5c4.8-0.7,7.5-4.1,8.2-8.9c0-0.7,0.7-1.4,1.4-1.4c0.7,0,1.4,0.7,1.4,1.4
		c0,5.5-4.1,10.3-9.6,11.7c-1.4,0-1.4,0-1.4,1.4c0,2.1,0,4.1,0,6.2c0,0,0,0.7,0.7,0.7c1.4,0,2.7,0,3.4,0s1.4,0.7,1.4,1.4
		c0,0.7-0.7,1.4-1.4,1.4C30.9,52.1,28.8,52.1,26.7,52.1z"/>
</g>
</svg>
