<?xml version="1.0" encoding="utf-8"?>
<!-- Generator: Adobe Illustrator 21.1.0, SVG Export Plug-In . SVG Version: 6.00 Build 0)  -->
<svg version="1.1" id="Layer_1" xmlns="http://www.w3.org/2000/svg" xmlns:xlink="http://www.w3.org/1999/xlink" x="0px" y="0px"
	 viewBox="0 0 442.2 67.9" style="enable-background:new 0 0 442.2 67.9;" xml:space="preserve">
<style type="text/css">
	.st0{fill:#FFFFFF;}
	.st1{enable-background:new    ;}
	.st2{fill:#02C9CE;}
</style>
<rect y="-0.3" class="st0" width="442.2" height="67.9"/>
<g class="st1">
	<path class="st2" d="M94.7,41.4c0,0.9-0.3,1.7-0.9,2.3c-0.6,0.6-1.4,0.9-2.3,0.9h-16v-4.5h14.4v-5.8H78.7c-0.9,0-1.7-0.3-2.3-0.9
		s-0.9-1.4-0.9-2.3v-5.8c0-0.9,0.3-1.7,0.9-2.3s1.4-0.9,2.3-0.9h16v4.5H80.3v3.2h11.2c0.9,0,1.7,0.3,2.3,0.9
		c0.6,0.6,0.9,1.4,0.9,2.3V41.4z"/>
	<path class="st2" d="M116.8,41.4c0,0.9-0.3,1.7-0.9,2.3c-0.6,0.6-1.4,0.9-2.3,0.9h-12.8c-0.9,0-1.7-0.3-2.3-0.9
		c-0.6-0.6-0.9-1.4-0.9-2.3V22.2h4.8v17.9h9.6V22.2h4.8V41.4z"/>
	<path class="st2" d="M138.9,41.4c0,0.9-0.3,1.7-0.9,2.3c-0.6,0.6-1.4,0.9-2.3,0.9h-16V22.2h16c0.9,0,1.7,0.3,2.3,0.9
		c0.6,0.6,0.9,1.4,0.9,2.3v3.5c0,0.9-0.3,1.7-0.9,2.3c-0.6,0.6-1.4,0.9-2.3,0.9c0.9,0,1.7,0.3,2.3,0.9c0.6,0.6,0.9,1.4,0.9,2.3V41.4
		z M134.2,26.7h-9.6v3.2h9.6V26.7z M134.2,34.4h-9.6v5.8h9.6V34.4z"/>
	<path class="st2" d="M161,41.4c0,0.9-0.3,1.7-0.9,2.3c-0.6,0.6-1.4,0.9-2.3,0.9h-16v-4.5h14.4v-5.8H145c-0.9,0-1.7-0.3-2.3-0.9
		s-0.9-1.4-0.9-2.3v-5.8c0-0.9,0.3-1.7,0.9-2.3s1.4-0.9,2.3-0.9h16v4.5h-14.4v3.2h11.2c0.9,0,1.7,0.3,2.3,0.9
		c0.6,0.6,0.9,1.4,0.9,2.3V41.4z"/>
	<path class="st2" d="M167.1,44.6c-0.9,0-1.7-0.3-2.3-0.9s-0.9-1.4-0.9-2.3v-16c0-0.9,0.3-1.7,0.9-2.3s1.4-0.9,2.3-0.9h14.4v4.5
		h-12.8v13.4h12.8v4.5H167.1z"/>
	<path class="st2" d="M197.9,44.6V34.4h-9.6v10.2h-4.8V22.2h16c0.9,0,1.7,0.3,2.3,0.9c0.6,0.6,0.9,1.4,0.9,2.3v3.5
		c0,0.9-0.3,1.7-0.9,2.3c-0.6,0.6-1.4,0.9-2.3,0.9c0.9,0,1.7,0.3,2.3,0.9c0.6,0.6,0.9,1.4,0.9,2.3v9.3H197.9z M197.9,26.7h-9.6v3.2
		h9.6V26.7z"/>
	<path class="st2" d="M205.6,44.6V22.2h4.8v22.4H205.6z"/>
	<path class="st2" d="M232.6,31.2c0,0.9-0.3,1.7-0.9,2.3s-1.4,0.9-2.3,0.9h-11.2v10.2h-4.8V22.2h16c0.9,0,1.7,0.3,2.3,0.9
		s0.9,1.4,0.9,2.3V31.2z M227.8,26.7h-9.6v3.2h9.6V26.7z"/>
	<path class="st2" d="M245.9,26.7v17.9h-4.8V26.7h-7.5v-4.5h19.2v4.5H245.9z"/>
	<path class="st2" d="M254.9,44.6V22.2h4.8v22.4H254.9z"/>
	<path class="st2" d="M281.9,41.4c0,0.9-0.3,1.7-0.9,2.3s-1.4,0.9-2.3,0.9h-12.8c-0.9,0-1.7-0.3-2.3-0.9s-0.9-1.4-0.9-2.3v-16
		c0-0.9,0.3-1.7,0.9-2.3s1.4-0.9,2.3-0.9h12.8c0.9,0,1.7,0.3,2.3,0.9s0.9,1.4,0.9,2.3V41.4z M277.1,26.7h-9.6v13.4h9.6V26.7z"/>
	<path class="st2" d="M299.2,44.6l-9.6-13.4v13.4h-4.8V22.2h4.8l9.6,13.4V22.2h4.8v22.4H299.2z"/>
	<path class="st2" d="M326.1,41.4c0,0.9-0.3,1.7-0.9,2.3c-0.6,0.6-1.4,0.9-2.3,0.9h-16v-4.5h14.4v-5.8h-11.2c-0.9,0-1.7-0.3-2.3-0.9
		s-0.9-1.4-0.9-2.3v-5.8c0-0.9,0.3-1.7,0.9-2.3s1.4-0.9,2.3-0.9h16v4.5h-14.4v3.2h11.2c0.9,0,1.7,0.3,2.3,0.9
		c0.6,0.6,0.9,1.4,0.9,2.3V41.4z"/>
</g>
<g>
	<circle class="st2" cx="26.8" cy="33.2" r="17.1"/>
	<circle class="st0" cx="26.8" cy="33.2" r="13.7"/>
	<polygon class="st2" points="26.8,36.7 21.3,40.2 23.3,33.9 17.9,29.8 24.7,29.8 26.8,23.1 29.5,29.8 35.7,29.8 30.9,33.9 
		32.2,40.2 	"/>
</g>
</svg>
