<?xml version="1.0" encoding="utf-8"?>
<!-- Generator: Adobe Illustrator 21.1.0, SVG Export Plug-In . SVG Version: 6.00 Build 0)  -->
<svg version="1.1" id="Layer_1" xmlns="http://www.w3.org/2000/svg" xmlns:xlink="http://www.w3.org/1999/xlink" x="0px" y="0px"
	 viewBox="0 0 442.2 67.9" style="enable-background:new 0 0 442.2 67.9;" xml:space="preserve">
<style type="text/css">
	.st0{fill:#FFFFFF;}
	.st1{enable-background:new    ;}
	.st2{fill:#02C9CE;}
</style>
<rect class="st0" width="442.2" height="67.9"/>
<g class="st1">
	<path class="st2" d="M87.1,27.2v17.9h-4.8V27.2h-7.5v-4.5h19.2v4.5H87.1z"/>
	<path class="st2" d="M110.5,45.1V34.9h-9.6v10.2h-4.8V22.8h16c0.9,0,1.7,0.3,2.3,0.9c0.6,0.6,0.9,1.4,0.9,2.3v3.5
		c0,0.9-0.3,1.7-0.9,2.3c-0.6,0.6-1.4,0.9-2.3,0.9c0.9,0,1.7,0.3,2.3,0.9c0.6,0.6,0.9,1.4,0.9,2.3v9.3H110.5z M110.5,27.2h-9.6v3.2
		h9.6V27.2z"/>
	<path class="st2" d="M121.4,45.1c-0.9,0-1.7-0.3-2.3-0.9s-0.9-1.4-0.9-2.3V26c0-0.9,0.3-1.7,0.9-2.3s1.4-0.9,2.3-0.9h14.4v4.5H123
		v3.2h12.8v4.5H123v5.8h12.8v4.5H121.4z"/>
	<path class="st2" d="M152.3,45.1l-9.6-13.4v13.4h-4.8V22.8h4.8l9.6,13.4V22.8h4.8v22.4H152.3z"/>
	<path class="st2" d="M179.2,41.9c0,0.9-0.3,1.7-0.9,2.3c-0.6,0.6-1.4,0.9-2.3,0.9h-16V22.8h16c0.9,0,1.7,0.3,2.3,0.9
		c0.6,0.6,0.9,1.4,0.9,2.3V41.9z M174.4,27.2h-9.6v13.4h9.6V27.2z"/>
	<path class="st2" d="M182.1,45.1V22.8h4.8v22.4H182.1z"/>
	<path class="st2" d="M204.3,45.1l-9.6-13.4v13.4h-4.8V22.8h4.8l9.6,13.4V22.8h4.8v22.4H204.3z"/>
	<path class="st2" d="M215.3,45.1c-0.9,0-1.7-0.3-2.3-0.9s-0.9-1.4-0.9-2.3V26c0-0.9,0.3-1.7,0.9-2.3s1.4-0.9,2.3-0.9h16v4.5h-14.4
		v13.4h9.6v-5.8H220v-4.5h11.2v14.7H215.3z"/>
</g>
<g>
	<path class="st2" d="M18.6,19.9L18.6,19.9c-1.4,0-2.1,0.7-2.1,1.4v23.3c0,0.7,0.7,1.4,1.4,1.4l0,0c0.7,0,1.4-0.7,1.4-1.4V21.3
		C19.9,21.2,19.2,19.9,18.6,19.9z"/>
	<path class="st2" d="M22.7,27.4L22.7,27.4c-0.7,0-1.4,0.7-1.4,1.4v10.3c0,0.7,0.7,1.4,1.4,1.4l0,0c0.7,0,1.4-0.7,1.4-1.4V28.8
		C23.4,28.1,23.4,27.4,22.7,27.4z"/>
	<path class="st2" d="M30.9,27.4L30.9,27.4c-0.7,0-1.4,0.7-1.4,1.4v10.3c0,0.7,0.7,1.4,1.4,1.4l0,0c0.7,0,1.4-0.7,1.4-1.4V28.8
		C32.3,28.1,31.6,27.4,30.9,27.4z"/>
	<path class="st2" d="M14.4,26.7L14.4,26.7c-0.7,0-1.4,0.7-1.4,1.4v11c0,0.7,0.7,1.4,1.4,1.4l0,0c0.7,0,1.4-0.7,1.4-1.4v-11
		C15.8,27.4,15.1,26.7,14.4,26.7z"/>
	<path class="st2" d="M39.1,26.7L39.1,26.7c-0.7,0-1.4,0.7-1.4,1.4v11c0,0.7,0.7,1.4,1.4,1.4l0,0c0.7,0,1.4-0.7,1.4-1.4v-11
		C40.5,27.4,39.8,26.7,39.1,26.7z"/>
	<path class="st2" d="M35,19.9L35,19.9c-1.4,0-2.1,0.7-2.1,1.4v23.3c0,0.7,0.7,1.4,1.4,1.4l0,0c0.7,0,1.4-0.7,1.4-1.4V21.3
		C37.1,21.2,36.4,19.9,35,19.9z"/>
	<path class="st2" d="M26.8,30.8L26.8,30.8c-0.7,0-1.4,0.7-1.4,1.4v3.4c0,0.7,0.7,1.4,1.4,1.4l0,0c0.7,0,1.4-0.7,1.4-1.4v-3.4
		C28.2,31.5,27.5,30.8,26.8,30.8z"/>
	<path class="st2" d="M10.3,30.8L10.3,30.8c-0.7,0-0.7,0-0.7,0.7v3.4c0,0.7,0,0.7,0.7,0.7l0,0c0.7,0,0.7,0,0.7-0.7v-3.4
		C11,31.5,10.3,30.8,10.3,30.8z"/>
	<path class="st2" d="M43.2,30.8L43.2,30.8c-0.7,0-0.7,0-0.7,0.7v3.4c0,0.7,0,0.7,0.7,0.7l0,0c0.7,0,0.7,0,0.7-0.7v-3.4
		C43.9,31.5,43.9,30.8,43.2,30.8z"/>
</g>
</svg>
