<?xml version="1.0" encoding="utf-8"?>
<!-- Generator: Adobe Illustrator 21.1.0, SVG Export Plug-In . SVG Version: 6.00 Build 0)  -->
<svg version="1.1" id="Layer_1" xmlns="http://www.w3.org/2000/svg" xmlns:xlink="http://www.w3.org/1999/xlink" x="0px" y="0px"
	 viewBox="0 0 951 643" style="enable-background:new 0 0 951 643;" xml:space="preserve">
<style type="text/css">
	.st0{fill:#02C7CD;}
</style>
<g>
	<g>
		<g>
			<g>
				<path class="st0" d="M383.9,65.6c-87.9-87.9-230.4-87.9-318.2,0s-87.9,230.4,0,318.2c87.9,87.9,230.4,87.9,318.2,0
					S471.8,153.4,383.9,65.6z M116.8,334.1c-60.5-60.5-60.5-158.7,0-219.2s158.7-60.5,219.2,0s60.5,158.7,0,219.2
					S177.3,394.6,116.8,334.1z"/>
				<path class="st0" d="M322.4,128.5c-53-53-139-53-192,0s-53,139,0,192s139,53,192,0S375.5,181.5,322.4,128.5z M323,299.6
					l-18.6-17.9l-19.8,19.8l17.9,18.6c-17.3,16.7-44.4,22.9-44.4,22.9s-26.6,8.2-49.9,2.4l7.7-25.4l-29.2-6.8l-6.1,25.9
					c-23.1-6.6-42-27-42-27s-20.4-18.9-27-42l24.8-7.2l-5.9-28.3l-25.4,7.7c-5.8-23.3,2.4-49.9,2.4-49.9s6.2-27.1,22.9-44.4
					l18.6,17.9l19.8-19.8l-17.9-18.6c17.3-16.7,44.4-22.9,44.4-22.9s26.6-8.2,49.9-2.4l-7.7,25.4l27.3,6.9l7.2-24.8
					c23.1,6.6,42,27,42,27s20.4,18.9,27,42l-25.9,6.1l7.8,28.3l25.4-7.7c5.8,23.3-2.4,49.9-2.4,49.9S339.7,282.4,323,299.6z"/>
			</g>
		</g>
	</g>
	<g>
		<g>
			<g>
				<path class="st0" d="M885,66.3c-87.9-87.9-230.4-87.9-318.2,0s-87.9,230.4,0,318.2c87.9,87.9,230.4,87.9,318.2,0
					S972.9,154.2,885,66.3z M617.9,334.8c-60.5-60.5-60.5-158.7,0-219.2s158.7-60.5,219.2,0c60.5,60.5,60.5,158.7,0,219.2
					C776.6,395.4,678.4,395.4,617.9,334.8z"/>
				<path class="st0" d="M823.5,129.2c-53-53-139-53-192,0c-53,53-53,139,0,192c53,53,139,53,192,0
					C876.5,268.2,876.5,182.2,823.5,129.2z M824.1,300.4l-18.6-17.9l-19.8,19.8l17.9,18.6c-17.3,16.7-44.4,22.9-44.4,22.9
					s-26.6,8.2-49.9,2.4l7.7-25.4l-29.2-6.8l-6.1,25.9c-23.1-6.6-42-27-42-27s-20.4-18.9-27-42l24.8-7.2l-5.9-28.3l-25.4,7.7
					c-5.8-23.3,2.4-49.9,2.4-49.9s6.2-27.1,22.9-44.4l18.6,17.9l19.8-19.8l-17.9-18.6c17.3-16.7,44.4-22.9,44.4-22.9
					s26.6-8.2,49.9-2.4l-7.7,25.4l27.3,6.9l7.2-24.8c23.1,6.6,42,27,42,27s20.4,18.9,27,42l-25.9,6.1l7.8,28.3l25.4-7.7
					c5.8,23.3-2.4,49.9-2.4,49.9S840.8,283.1,824.1,300.4z"/>
			</g>
		</g>
	</g>
	<rect x="224.8" y="423.8" class="st0" width="501.1" height="25.9"/>
	<g>
		<path class="st0" d="M-0.4,512.5v-12.2h28l5.4,12.2H-0.4z M-0.4,528.8v-12.2h35.3l5.4,12.2H-0.4z M-0.4,545v-12.2h42.5l5.4,12.2
			H-0.4z M-0.4,561.3v-12.2h49.8l5.4,12.2H-0.4z M30.4,577.6l-2.8-6.1v6.1h-28v-12.2h56.9l5.6,12.2H30.4z M-0.4,593.9v-12.2h28v12.2
			H-0.4z M-0.4,610.1v-12.2h28v12.2H-0.4z M-0.4,626.4v-12.2h28v12.2H-0.4z M-0.4,642.7v-12.2h28v12.2H-0.4z M37.5,593.9l-5.4-12.2
			h31.7l5.4,12.2H37.5z M96.3,610.1H44.8l-5.4-12.2h62.3L96.3,610.1z M89,626.4H52.1l-5.4-12.2h47.8L89,626.4z M81.7,642.7H59.3
			l-5.4-12.2h33.2L81.7,642.7z M103.5,593.9H71.8l5.4-12.2H109L103.5,593.9z M113.4,577.6v-6.1l-2.8,6.1H78.9l5.6-12.2h56.9v12.2
			H113.4z M86.2,561.3l5.4-12.2h49.8v12.2H86.2z M93.5,545l5.4-12.2h42.5V545H93.5z M100.8,528.8l5.4-12.2h35.3v12.2H100.8z
			 M108,512.5l5.4-12.2h28v12.2H108z M113.4,593.9v-12.2h28v12.2H113.4z M113.4,610.1v-12.2h28v12.2H113.4z M113.4,626.4v-12.2h28
			v12.2H113.4z M113.4,642.7v-12.2h28v12.2H113.4z"/>
		<path class="st0" d="M156.7,512.5v-12.2h28v12.2H156.7z M156.7,528.8v-12.2h28v12.2H156.7z M156.7,545v-12.2h28V545H156.7z
			 M156.7,561.3v-12.2h28v12.2H156.7z M156.7,577.6v-12.2h28v12.2H156.7z M156.7,593.9v-12.2h28v12.2H156.7z M156.7,610.1v-12.2h28
			v12.2H156.7z M156.7,626.4v-12.2h28v12.2H156.7z M156.7,642.7v-12.2h28v12.2H156.7z"/>
		<path class="st0" d="M205.4,512.5l-8.2-12.2h35.4l8.2,12.2H205.4z M232.6,642.7h-35.4l8.2-12.2h35.4L232.6,642.7z M216.2,528.8
			l-8.2-12.2h35.4l8.2,12.2H216.2z M243.5,626.4H208l8.2-12.2h35.4L243.5,626.4z M297.9,545H227l-8-12.2h35.4l8,12.2l8-12.2h35.4
			L297.9,545z M270.5,610.1l-8-12.2l-8,12.2H219l8-12.2h70.9l8,12.2H270.5z M286.9,561.3H238l-8.2-12.2h65.3L286.9,561.3z
			 M229.8,593.9l8.2-12.2h48.9l8.2,12.2H229.8z M240.7,577.6l4.1-6.1l-4.1-6.1h43.6l-4.1,6.1l4.1,6.1H240.7z M308.7,528.8h-35.4
			l8.2-12.2h35.4L308.7,528.8z M281.5,626.4l-8.2-12.2h35.4l8.2,12.2H281.5z M319.6,512.5h-35.4l8.2-12.2h35.4L319.6,512.5z
			 M292.3,642.7l-8.2-12.2h35.4l8.2,12.2H292.3z"/>
		<path class="st0" d="M334.3,512.5v-12.2h111.9v12.2H334.3z M334.3,528.8v-12.2h111.9v12.2H334.3z M378.1,545v-12.2h28V545H378.1z
			 M378.1,561.3v-12.2h28v12.2H378.1z M378.1,577.6v-12.2h28v12.2H378.1z M378.1,593.9v-12.2h28v12.2H378.1z M378.1,610.1v-12.2h28
			v12.2H378.1z M378.1,626.4v-12.2h28v12.2H378.1z M378.1,642.7v-12.2h28v12.2H378.1z"/>
		<path class="st0" d="M483.5,642.7h-31.7l4.5-12.2H488L483.5,642.7z M489.5,626.4h-31.7l4.5-12.2H494L489.5,626.4z M463.7,610.1
			l4.5-12.2h107.1l4.5,12.2H463.7z M469.7,593.9l4.5-12.2h95.1l4.5,12.2H469.7z M507.4,577.6h-31.7l4.5-12.2h31.7L507.4,577.6z
			 M513.4,561.3h-31.7l4.5-12.2h31.7L513.4,561.3z M524.2,545l-2.4-6.7l-2.4,6.7h-31.7l4.5-12.2h59.3l4.5,12.2H524.2z M493.6,528.8
			l4.5-12.2h47.4l4.5,12.2H493.6z M499.6,512.5l4.5-12.2h35.4l4.5,12.2H499.6z M530.2,561.3l-4.5-12.2h31.7l4.5,12.2H530.2z
			 M536.1,577.6l-4.5-12.2h31.7l4.5,12.2H536.1z M554,626.4l-4.5-12.2h31.7l4.5,12.2H554z M560,642.7l-4.5-12.2h31.7l4.5,12.2H560z"
			/>
		<path class="st0" d="M602.7,512.5v-12.2H696c8.2,0,13.9,4.1,17.2,12.2H602.7z M602.7,528.8v-12.2h111.5c0,0.4,0,0.8,0.1,1.1
			c0.1,0.3,0.1,0.6,0.1,0.9c0.1,0.4,0.2,1.1,0.2,2v8.1H602.7z M602.7,545v-12.2h28V545H602.7z M714.6,557.2c0,1-0.1,1.6-0.2,2
			c0,0.3,0,0.6-0.1,0.9c-0.1,0.3-0.1,0.7-0.1,1.1H602.7v-12.2h111.9V557.2z M713.1,565.4c-3.2,8.1-9,12.2-17.2,12.2h-93.3v-12.2
			H713.1z M602.7,593.9v-12.2h28v12.2H602.7z M602.7,610.1v-12.2h28v12.2H602.7z M602.7,626.4v-12.2h28v12.2H602.7z M602.7,642.7
			v-12.2h28v12.2H602.7z M686.7,545v-12.2h28V545H686.7z"/>
		<path class="st0" d="M723,528.8v-8.1c0-0.9,0.1-1.6,0.2-2c0-0.3,0-0.6,0.1-0.9c0.1-0.3,0.1-0.7,0.1-1.1h102.2v12.2H723z M723,545
			v-12.2h28V545H723z M723,561.3v-12.2h102.6v12.2H723z M723,577.6v-12.2h102.6v12.2H723z M723,593.9v-12.2h28v12.2H723z M723,610.1
			v-12.2h28v12.2H723z M723.4,626.4c0-0.4,0-0.8-0.1-1.1c-0.1-0.3-0.1-0.6-0.1-0.9c-0.1-0.4-0.2-1.1-0.2-2v-8.1h102.6v12.2H723.4z
			 M724.5,512.5c3.1-8.1,8.8-12.2,17.2-12.2h83.9v12.2H724.5z M741.7,642.7c-8.3,0-14.1-4.1-17.2-12.2h101.1v12.2H741.7z"/>
		<path class="st0" d="M839.8,512.5v-12.2h93.3c8.2,0,13.9,4.1,17.2,12.2H839.8z M839.8,528.8v-12.2h111.5c0,0.4,0,0.8,0.1,1.1
			c0.1,0.3,0.1,0.6,0.1,0.9c0.1,0.4,0.2,1.1,0.2,2v8.1H839.8z M839.8,545v-12.2h28V545H839.8z M839.8,561.3v-12.2h28v12.2H839.8z
			 M839.8,577.6v-12.2h28v12.2H839.8z M839.8,593.9v-12.2h28v12.2H839.8z M839.8,610.1v-12.2h28v12.2H839.8z M951.7,622.3
			c0,1-0.1,1.6-0.2,2c0,0.3,0,0.6-0.1,0.9c-0.1,0.3-0.1,0.7-0.1,1.1H839.8v-12.2h111.9V622.3z M950.2,630.5
			c-3.2,8.1-9,12.2-17.2,12.2h-93.3v-12.2H950.2z M923.7,545v-12.2h28V545H923.7z M923.7,561.3v-12.2h28v12.2H923.7z M923.7,577.6
			v-12.2h28v12.2H923.7z M923.7,593.9v-12.2h28v12.2H923.7z M923.7,610.1v-12.2h28v12.2H923.7z"/>
	</g>
</g>
</svg>
