<?xml version="1.0" encoding="utf-8"?>
<!-- Generator: Adobe Illustrator 21.1.0, SVG Export Plug-In . SVG Version: 6.00 Build 0)  -->
<svg version="1.1" id="Layer_1" xmlns="http://www.w3.org/2000/svg" xmlns:xlink="http://www.w3.org/1999/xlink" x="0px" y="0px"
	 viewBox="0 0 841.3 398.1" style="enable-background:new 0 0 841.3 398.1;" xml:space="preserve">
<style type="text/css">
	.st0{fill:#FFFFFF;}
</style>
<g>
	<g>
		<g>
			<g>
				<path class="st0" d="M339.8,57.6c-77.7-77.7-203.8-77.7-281.5,0s-77.7,203.8,0,281.5s203.8,77.7,281.5,0S417.5,135.4,339.8,57.6
					z M103.5,295.2c-53.6-53.6-53.6-140.4,0-193.9s140.4-53.5,193.9,0s53.6,140.4,0,193.9C243.9,348.7,157,348.7,103.5,295.2z"/>
				<path class="st0" d="M285.4,113.3c-46.9-46.9-123-46.9-169.9,0s-46.9,123,0,169.9s123,46.9,169.9,0S332.3,160.2,285.4,113.3z
					 M285.9,264.7l-16.4-15.8L252,266.4l15.8,16.4c-15.3,14.8-39.3,20.3-39.3,20.3s-23.5,7.3-44.1,2.1l6.8-22.5l-25.8-6.1l-5.4,22.9
					c-20.4-5.8-37.2-23.9-37.2-23.9s-18-16.7-23.9-37.2l21.9-6.3l-5.2-25l-22.5,6.8c-5.2-20.6,2.1-44.1,2.1-44.1s5.5-24,20.3-39.3
					l16.4,15.8l17.5-17.5l-15.8-16.4c15.3-14.8,39.3-20.3,39.3-20.3s23.5-7.3,44.1-2.1l-6.8,22.5l24.1,6.1l6.3-21.9
					c20.4,5.8,37.2,23.9,37.2,23.9s18,16.7,23.9,37.2l-22.9,5.4l6.9,25l22.5-6.8c5.2,20.6-2.1,44.1-2.1,44.1
					S300.7,249.4,285.9,264.7z"/>
			</g>
		</g>
	</g>
	<g>
		<g>
			<g>
				<path class="st0" d="M783,58.3c-77.7-77.7-203.8-77.7-281.5,0s-77.7,203.8,0,281.5s203.8,77.7,281.5,0S860.7,136,783,58.3z
					 M546.7,295.8c-53.6-53.6-53.6-140.4,0-193.9c53.5-53.6,140.4-53.5,193.9,0c53.6,53.6,53.6,140.4,0,193.9
					C687.1,349.4,600.2,349.4,546.7,295.8z"/>
				<path class="st0" d="M728.6,113.9c-46.9-46.9-123-46.9-169.9,0s-46.9,123,0,169.9s123,46.9,169.9,0S775.5,160.8,728.6,113.9z
					 M729.1,265.3l-16.4-15.8L695.2,267l15.8,16.4c-15.3,14.8-39.3,20.3-39.3,20.3s-23.5,7.3-44.1,2.1l6.8-22.5l-25.8-6.1l-5.4,22.9
					c-20.4-5.8-37.2-23.9-37.2-23.9s-18-16.7-23.9-37.2l21.9-6.3l-5.2-25l-22.5,6.8c-5.2-20.6,2.1-44.1,2.1-44.1s5.5-24,20.3-39.3
					l16.4,15.8l17.5-17.5L576.8,113c15.3-14.8,39.3-20.3,39.3-20.3s23.5-7.3,44.1-2.1l-6.8,22.5l24.1,6.1l6.3-21.9
					c20.4,5.8,37.2,23.9,37.2,23.9s18,16.7,23.9,37.2l-22.9,5.4l6.9,25l22.5-6.8c5.2,20.6-2.1,44.1-2.1,44.1
					S743.9,250.1,729.1,265.3z"/>
			</g>
		</g>
	</g>
	<rect x="199" y="374.5" class="st0" width="443.2" height="22.9"/>
</g>
</svg>
