<?xml version="1.0" encoding="utf-8"?>
<!-- Generator: Adobe Illustrator 21.1.0, SVG Export Plug-In . SVG Version: 6.00 Build 0)  -->
<svg version="1.1" id="Layer_1" xmlns="http://www.w3.org/2000/svg" xmlns:xlink="http://www.w3.org/1999/xlink" x="0px" y="0px"
	 viewBox="0 0 1000 1000" style="enable-background:new 0 0 1000 1000;" xml:space="preserve">
<style type="text/css">
	.st0{fill:#FFFFFF;}
</style>
<g>
	<g>
		<g>
			<g>
				<path class="st0" d="M421.8,275.5c-77.7-77.7-203.8-77.7-281.5,0s-77.7,203.8,0,281.5c77.7,77.7,203.8,77.7,281.5,0
					S499.5,353.3,421.8,275.5z M185.5,513.1c-53.6-53.6-53.6-140.4,0-193.9s140.4-53.5,193.9,0s53.6,140.4,0,193.9
					C325.9,566.6,239,566.6,185.5,513.1z"/>
				<path class="st0" d="M367.4,331.2c-46.9-46.9-123-46.9-169.9,0s-46.9,123,0,169.9s123,46.9,169.9,0S414.3,378.1,367.4,331.2z
					 M367.9,482.6l-16.4-15.8L334,484.3l15.8,16.4c-15.3,14.8-39.3,20.3-39.3,20.3s-23.5,7.3-44.1,2.1l6.8-22.5l-25.8-6.1l-5.4,22.9
					c-20.4-5.8-37.2-23.9-37.2-23.9s-18-16.7-23.9-37.2l21.9-6.3l-5.2-25l-22.5,6.8c-5.2-20.6,2.1-44.1,2.1-44.1s5.5-24,20.3-39.3
					l16.4,15.8l17.5-17.5l-15.8-16.4c15.3-14.8,39.3-20.3,39.3-20.3s23.5-7.3,44.1-2.1l-6.8,22.5l24.1,6.1l6.3-21.9
					c20.4,5.8,37.2,23.9,37.2,23.9s18,16.7,23.9,37.2l-22.9,5.4l6.9,25l22.5-6.8c5.2,20.6-2.1,44.1-2.1,44.1
					S382.7,467.3,367.9,482.6z"/>
			</g>
		</g>
	</g>
	<g>
		<g>
			<g>
				<path class="st0" d="M865,276.2c-77.7-77.7-203.8-77.7-281.5,0s-77.7,203.8,0,281.5c77.7,77.7,203.8,77.7,281.5,0
					S942.7,353.9,865,276.2z M628.7,513.7c-53.6-53.6-53.6-140.4,0-193.9c53.5-53.6,140.4-53.5,193.9,0
					c53.6,53.6,53.6,140.4,0,193.9C769.1,567.3,682.2,567.3,628.7,513.7z"/>
				<path class="st0" d="M810.6,331.8c-46.9-46.9-123-46.9-169.9,0s-46.9,123,0,169.9s123,46.9,169.9,0S857.5,378.7,810.6,331.8z
					 M811.1,483.2l-16.4-15.8l-17.5,17.5l15.8,16.4c-15.3,14.8-39.3,20.3-39.3,20.3s-23.5,7.3-44.1,2.1l6.8-22.5l-25.8-6.1
					l-5.4,22.9c-20.4-5.8-37.2-23.9-37.2-23.9s-18-16.7-23.9-37.2l21.9-6.3l-5.2-25l-22.5,6.8c-5.2-20.6,2.1-44.1,2.1-44.1
					s5.5-24,20.3-39.3l16.4,15.8l17.5-17.5l-15.8-16.4c15.3-14.8,39.3-20.3,39.3-20.3s23.5-7.3,44.1-2.1l-6.8,22.5l24.1,6.1
					l6.3-21.9c20.4,5.8,37.2,23.9,37.2,23.9s18,16.7,23.9,37.2l-22.9,5.4l6.9,25l22.5-6.8c5.2,20.6-2.1,44.1-2.1,44.1
					S825.9,468,811.1,483.2z"/>
			</g>
		</g>
	</g>
	<rect x="281" y="592.4" class="st0" width="443.2" height="22.9"/>
	<g>
		<path class="st0" d="M81.9,670.9v-10.8h24.7l4.8,10.8H81.9z M81.9,685.3v-10.8H113l4.8,10.8H81.9z M81.9,699.7v-10.8h37.6
			l4.8,10.8H81.9z M81.9,714.1v-10.8h44.1l4.8,10.8H81.9z M109.1,728.5l-2.5-5.4v5.4H81.9v-10.8h50.3l5,10.8H109.1z M81.9,742.8
			v-10.8h24.7v10.8H81.9z M81.9,757.2v-10.8h24.7v10.8H81.9z M81.9,771.6v-10.8h24.7v10.8H81.9z M81.9,786v-10.8h24.7V786H81.9z
			 M115.4,742.8l-4.8-10.8h28.1l4.8,10.8H115.4z M167.3,757.2h-45.5l-4.8-10.8h55.1L167.3,757.2z M160.9,771.6h-32.7l-4.8-10.8h42.2
			L160.9,771.6z M154.5,786h-19.8l-4.8-10.8h29.4L154.5,786z M173.8,742.8h-28.1l4.8-10.8h28.1L173.8,742.8z M182.5,728.5v-5.4
			l-2.5,5.4h-28l4.9-10.8h50.3v10.8H182.5z M158.4,714.1l4.8-10.8h44.1v10.8H158.4z M164.8,699.7l4.8-10.8h37.6v10.8H164.8z
			 M171.3,685.3l4.8-10.8h31.2v10.8H171.3z M177.7,670.9l4.8-10.8h24.7v10.8H177.7z M182.5,742.8v-10.8h24.7v10.8H182.5z
			 M182.5,757.2v-10.8h24.7v10.8H182.5z M182.5,771.6v-10.8h24.7v10.8H182.5z M182.5,786v-10.8h24.7V786H182.5z"/>
		<path class="st0" d="M220.8,670.9v-10.8h24.7v10.8H220.8z M220.8,685.3v-10.8h24.7v10.8H220.8z M220.8,699.7v-10.8h24.7v10.8
			H220.8z M220.8,714.1v-10.8h24.7v10.8H220.8z M220.8,728.5v-10.8h24.7v10.8H220.8z M220.8,742.8v-10.8h24.7v10.8H220.8z
			 M220.8,757.2v-10.8h24.7v10.8H220.8z M220.8,771.6v-10.8h24.7v10.8H220.8z M220.8,786v-10.8h24.7V786H220.8z"/>
		<path class="st0" d="M263.8,670.9l-7.3-10.8h31.3l7.3,10.8H263.8z M287.9,786h-31.3l7.3-10.8h31.3L287.9,786z M273.4,685.3
			l-7.3-10.8h31.3l7.3,10.8H273.4z M297.5,771.6h-31.3l7.3-10.8h31.3L297.5,771.6z M345.7,699.7H283l-7.1-10.8h31.4l7.1,10.8
			l7.1-10.8h31.4L345.7,699.7z M321.4,757.2l-7.1-10.8l-7.1,10.8h-31.4l7.1-10.8h62.7l7.1,10.8H321.4z M335.9,714.1h-43.2l-7.3-10.8
			h57.7L335.9,714.1z M285.5,742.8l7.3-10.8h43.2l7.3,10.8H285.5z M295,728.5l3.6-5.4l-3.6-5.4h38.6l-3.6,5.4l3.6,5.4H295z
			 M355.3,685.3h-31.3l7.3-10.8h31.3L355.3,685.3z M331.2,771.6l-7.3-10.8h31.3l7.3,10.8H331.2z M364.8,670.9h-31.3l7.3-10.8h31.3
			L364.8,670.9z M340.7,786l-7.3-10.8h31.3l7.3,10.8H340.7z"/>
		<path class="st0" d="M377.9,670.9v-10.8h99v10.8H377.9z M377.9,685.3v-10.8h99v10.8H377.9z M416.6,699.7v-10.8h24.7v10.8H416.6z
			 M416.6,714.1v-10.8h24.7v10.8H416.6z M416.6,728.5v-10.8h24.7v10.8H416.6z M416.6,742.8v-10.8h24.7v10.8H416.6z M416.6,757.2
			v-10.8h24.7v10.8H416.6z M416.6,771.6v-10.8h24.7v10.8H416.6z M416.6,786v-10.8h24.7V786H416.6z"/>
		<path class="st0" d="M509.9,786h-28.1l4-10.8h28.1L509.9,786z M515.1,771.6h-28.1l4-10.8h28.1L515.1,771.6z M492.4,757.2l4-10.8
			H591l4,10.8H492.4z M497.7,742.8l4-10.8h84.2l4,10.8H497.7z M531,728.5h-28.1l4-10.8h28.1L531,728.5z M536.3,714.1h-28.1l4-10.8
			h28L536.3,714.1z M545.8,699.7l-2.1-5.9l-2.1,5.9h-28.1l4-10.8h52.5l4,10.8H545.8z M518.8,685.3l4-10.8h41.9l4,10.8H518.8z
			 M524,670.9l4-10.8h31.3l4,10.8H524z M551.1,714.1l-4-10.8h28.1l4,10.8H551.1z M556.4,728.5l-4-10.8h28.1l4,10.8H556.4z
			 M572.2,771.6l-4-10.8h28.1l4,10.8H572.2z M577.5,786l-4-10.8h28.1l4,10.8H577.5z"/>
		<path class="st0" d="M615.3,670.9v-10.8h82.5c7.3,0,12.3,3.6,15.2,10.8H615.3z M615.3,685.3v-10.8H714c0,0.4,0,0.7,0.1,1
			c0.1,0.3,0.1,0.6,0.1,0.8c0.1,0.4,0.2,1,0.2,1.8v7.2H615.3z M615.3,699.7v-10.8H640v10.8H615.3z M714.3,710.5
			c0,0.8-0.1,1.4-0.2,1.8c0,0.2,0,0.5-0.1,0.8c-0.1,0.3-0.1,0.6-0.1,1h-98.7v-10.8h99V710.5z M713,717.7
			c-2.9,7.2-7.9,10.8-15.2,10.8h-82.5v-10.8H713z M615.3,742.8v-10.8H640v10.8H615.3z M615.3,757.2v-10.8H640v10.8H615.3z
			 M615.3,771.6v-10.8H640v10.8H615.3z M615.3,786v-10.8H640V786H615.3z M689.5,699.7v-10.8h24.8v10.8H689.5z"/>
		<path class="st0" d="M721.7,685.3v-7.2c0-0.8,0.1-1.4,0.2-1.8c0-0.2,0-0.5,0.1-0.8c0.1-0.3,0.1-0.6,0.1-1h90.4v10.8H721.7z
			 M721.7,699.7v-10.8h24.7v10.8H721.7z M721.7,714.1v-10.8h90.7v10.8H721.7z M721.7,728.5v-10.8h90.7v10.8H721.7z M721.7,742.8
			v-10.8h24.7v10.8H721.7z M721.7,757.2v-10.8h24.7v10.8H721.7z M722,771.6c0-0.4,0-0.7-0.1-1c-0.1-0.3-0.1-0.6-0.1-0.8
			c-0.1-0.4-0.2-1-0.2-1.8v-7.2h90.7v10.8H722z M723,670.9c2.7-7.2,7.8-10.8,15.2-10.8h74.2v10.8H723z M738.2,786
			c-7.4,0-12.4-3.6-15.2-10.8h89.4V786H738.2z"/>
		<path class="st0" d="M825,670.9v-10.8h82.5c7.3,0,12.3,3.6,15.2,10.8H825z M825,685.3v-10.8h98.7c0,0.4,0,0.7,0.1,1
			c0.1,0.3,0.1,0.6,0.1,0.8c0.1,0.4,0.2,1,0.2,1.8v7.2H825z M825,699.7v-10.8h24.7v10.8H825z M825,714.1v-10.8h24.7v10.8H825z
			 M825,728.5v-10.8h24.7v10.8H825z M825,742.8v-10.8h24.7v10.8H825z M825,757.2v-10.8h24.7v10.8H825z M924,768
			c0,0.8-0.1,1.4-0.2,1.8c0,0.2,0,0.5-0.1,0.8c-0.1,0.3-0.1,0.6-0.1,1H825v-10.8h99V768z M922.7,775.2c-2.9,7.2-7.9,10.8-15.2,10.8
			H825v-10.8H922.7z M899.2,699.7v-10.8H924v10.8H899.2z M899.2,714.1v-10.8H924v10.8H899.2z M899.2,728.5v-10.8H924v10.8H899.2z
			 M899.2,742.8v-10.8H924v10.8H899.2z M899.2,757.2v-10.8H924v10.8H899.2z"/>
	</g>
</g>
</svg>
